M48
; DRILL file KiCad 10.0.0 date 2026-07-10T00:05:43
; FORMAT={-:-/ absolute / metric / decimal}
; #@! TF.CreationDate,2026-07-10T00:05:43-05:00
; #@! TF.GenerationSoftware,Kicad,Pcbnew,10.0.0
; #@! TF.FileFunction,Plated,1,2,PTH
FMAT,2
METRIC
; #@! TA.AperFunction,Plated,PTH,ViaDrill
T1C0.300
; #@! TA.AperFunction,Plated,PTH,ComponentDrill
T2C0.750
; #@! TA.AperFunction,Plated,PTH,ComponentDrill
T3C0.800
; #@! TA.AperFunction,Plated,PTH,ComponentDrill
T4C1.000
; #@! TA.AperFunction,Plated,PTH,ComponentDrill
T5C1.020
; #@! TA.AperFunction,Plated,PTH,ComponentDrill
T6C1.300
; #@! TA.AperFunction,Plated,PTH,ComponentDrill
T7C1.727
%
G90
G05
T1
X97.4Y-56.8
X98.0Y-59.2
X100.2Y-70.4
X100.2Y-74.4
X101.0Y-62.2
X101.8Y-65.4
X102.0Y-59.6
X103.8Y-70.4
X103.8Y-74.4
X104.0Y-65.4
X105.9Y-65.1
X106.0Y-78.0
X106.0Y-79.6
X106.2Y-63.6
X107.0Y-74.6
X107.4Y-78.0
X107.8Y-72.6
X108.2Y-70.4
X111.0Y-84.6
X112.4Y-82.8
X113.8Y-81.4
X117.0Y-87.4
X117.2Y-78.8
X118.6Y-86.2
X120.8Y-66.0
X122.8Y-81.8
X122.8Y-89.2
X126.2Y-123.4
X127.8Y-123.4
X128.225Y-126.946
X130.0Y-119.2
X139.4Y-45.2
X139.4Y-49.8
X140.6Y-138.6
X141.4Y-133.4
X141.4Y-135.4
X141.4Y-127.8
X141.4Y-129.4
X142.8Y-138.6
X143.6Y-127.8
X143.6Y-129.4
X143.6Y-133.4
X143.6Y-135.4
X151.0Y-45.2
X151.0Y-49.8
X151.2Y-137.0
X153.4Y-76.4
X153.6Y-68.8
X153.8Y-71.4
X154.4Y-78.6
X155.2Y-89.2
X156.0Y-73.8
X157.8Y-75.2
X160.4Y-62.4
X161.4Y-45.2
X161.4Y-49.8
X161.8Y-64.2
X162.2Y-67.6
X164.0Y-69.0
X165.8Y-76.6
X167.6Y-78.8
X168.0Y-54.8
X168.2Y-61.6
X169.2Y-56.8
X169.8Y-45.2
X170.0Y-63.0
X170.6Y-49.8
X173.6Y-65.0
X175.4Y-54.4
X177.2Y-55.8
X179.2Y-45.2
T2
X94.2Y-58.0
X94.2Y-60.0
X94.2Y-62.0
X94.2Y-69.4
X94.2Y-71.4
X94.2Y-73.4
X94.2Y-75.4
X94.2Y-77.4
X181.6Y-48.2
X181.6Y-50.2
X181.6Y-58.0
X181.6Y-60.0
X181.6Y-62.0
X181.6Y-69.4
X181.6Y-71.4
X181.6Y-73.4
X181.6Y-75.4
X181.6Y-77.4
T3
X126.0Y-134.5
X126.0Y-138.0
T4
X131.8Y-41.18
X131.8Y-43.72
X131.8Y-46.26
X131.8Y-48.8
X131.8Y-51.34
X131.8Y-53.88
X131.8Y-56.42
X131.8Y-58.96
T5
X125.8Y-67.6
X125.8Y-70.14
X125.8Y-72.68
X125.8Y-75.22
X125.8Y-77.76
X125.8Y-80.3
X125.8Y-82.84
X125.8Y-85.38
X125.8Y-87.92
X125.8Y-90.46
X125.8Y-93.0
X125.8Y-95.54
X125.8Y-98.08
X125.8Y-100.62
X125.8Y-103.16
X151.2Y-67.6
X151.2Y-70.14
X151.2Y-72.68
X151.2Y-75.22
X151.2Y-77.76
X151.2Y-80.3
X151.2Y-82.84
X151.2Y-85.38
X151.2Y-87.92
X151.2Y-90.46
X151.2Y-93.0
X151.2Y-95.54
X151.2Y-98.08
X151.2Y-100.62
X151.2Y-103.16
T6
X94.563Y-91.998
X94.563Y-96.998
X94.563Y-106.1
X94.563Y-111.1
X94.563Y-120.7
X94.563Y-125.7
X94.563Y-131.465
X94.563Y-136.465
X136.273Y-143.797
X141.273Y-143.797
X181.2Y-106.1
X181.2Y-111.1
X181.2Y-120.765
X181.2Y-125.765
X181.2Y-131.465
X181.2Y-136.465
X181.238Y-91.998
X181.238Y-96.998
T7
X102.736Y-91.298
X102.736Y-94.6
X102.736Y-105.4
X102.736Y-108.702
X102.736Y-120.298
X102.736Y-123.6
X102.736Y-130.898
X102.736Y-134.2
X116.198Y-91.298
X116.198Y-94.6
X116.198Y-105.4
X116.198Y-108.702
X116.198Y-120.298
X116.198Y-123.6
X116.198Y-130.898
X116.198Y-134.2
X135.365Y-120.736
X135.365Y-134.198
X138.667Y-120.736
X138.667Y-134.198
X159.738Y-123.13
X159.738Y-126.432
X159.738Y-94.33
X159.738Y-97.632
X159.738Y-133.765
X159.738Y-137.067
X159.8Y-108.365
X159.8Y-111.667
X173.2Y-123.13
X173.2Y-126.432
X173.2Y-94.33
X173.2Y-97.632
X173.2Y-133.765
X173.2Y-137.067
X173.262Y-108.365
X173.262Y-111.667
M30
