%TF.GenerationSoftware,KiCad,Pcbnew,10.0.0*%
%TF.CreationDate,2026-08-23T23:32:53-05:00*%
%TF.ProjectId,Project_Roll,50726f6a-6563-4745-9f52-6f6c6c2e6b69,rev?*%
%TF.SameCoordinates,Original*%
%TF.FileFunction,Paste,Top*%
%TF.FilePolarity,Positive*%
%FSLAX46Y46*%
G04 Gerber Fmt 4.6, Leading zero omitted, Abs format (unit mm)*
G04 Created by KiCad (PCBNEW 10.0.0) date 2026-08-23 23:32:53*
%MOMM*%
%LPD*%
G01*
G04 APERTURE LIST*
G04 Aperture macros list*
%AMRoundRect*
0 Rectangle with rounded corners*
0 $1 Rounding radius*
0 $2 $3 $4 $5 $6 $7 $8 $9 X,Y pos of 4 corners*
0 Add a 4 corners polygon primitive as box body*
4,1,4,$2,$3,$4,$5,$6,$7,$8,$9,$2,$3,0*
0 Add four circle primitives for the rounded corners*
1,1,$1+$1,$2,$3*
1,1,$1+$1,$4,$5*
1,1,$1+$1,$6,$7*
1,1,$1+$1,$8,$9*
0 Add four rect primitives between the rounded corners*
20,1,$1+$1,$2,$3,$4,$5,0*
20,1,$1+$1,$4,$5,$6,$7,0*
20,1,$1+$1,$6,$7,$8,$9,0*
20,1,$1+$1,$8,$9,$2,$3,0*%
G04 Aperture macros list end*
%ADD10RoundRect,0.237500X0.237500X-0.300000X0.237500X0.300000X-0.237500X0.300000X-0.237500X-0.300000X0*%
%ADD11RoundRect,0.237500X-0.287500X-0.237500X0.287500X-0.237500X0.287500X0.237500X-0.287500X0.237500X0*%
%ADD12RoundRect,0.150000X-0.512500X-0.150000X0.512500X-0.150000X0.512500X0.150000X-0.512500X0.150000X0*%
%ADD13RoundRect,0.237500X-0.300000X-0.237500X0.300000X-0.237500X0.300000X0.237500X-0.300000X0.237500X0*%
%ADD14RoundRect,0.237500X0.237500X-0.250000X0.237500X0.250000X-0.237500X0.250000X-0.237500X-0.250000X0*%
%ADD15RoundRect,0.237500X0.250000X0.237500X-0.250000X0.237500X-0.250000X-0.237500X0.250000X-0.237500X0*%
%ADD16RoundRect,0.237500X0.300000X0.237500X-0.300000X0.237500X-0.300000X-0.237500X0.300000X-0.237500X0*%
%ADD17RoundRect,0.250000X-0.625000X0.400000X-0.625000X-0.400000X0.625000X-0.400000X0.625000X0.400000X0*%
%ADD18RoundRect,0.250001X1.074999X-0.462499X1.074999X0.462499X-1.074999X0.462499X-1.074999X-0.462499X0*%
%ADD19RoundRect,0.237500X0.287500X0.237500X-0.287500X0.237500X-0.287500X-0.237500X0.287500X-0.237500X0*%
%ADD20RoundRect,0.237500X-0.250000X-0.237500X0.250000X-0.237500X0.250000X0.237500X-0.250000X0.237500X0*%
%ADD21RoundRect,0.237500X0.237500X-0.287500X0.237500X0.287500X-0.237500X0.287500X-0.237500X-0.287500X0*%
%ADD22RoundRect,0.250000X2.375000X-2.025000X2.375000X2.025000X-2.375000X2.025000X-2.375000X-2.025000X0*%
%ADD23RoundRect,0.250000X0.300000X-2.050000X0.300000X2.050000X-0.300000X2.050000X-0.300000X-2.050000X0*%
%ADD24RoundRect,0.237500X-0.237500X0.300000X-0.237500X-0.300000X0.237500X-0.300000X0.237500X0.300000X0*%
%ADD25RoundRect,0.250000X1.000000X0.650000X-1.000000X0.650000X-1.000000X-0.650000X1.000000X-0.650000X0*%
%ADD26RoundRect,0.250000X0.650000X-1.000000X0.650000X1.000000X-0.650000X1.000000X-0.650000X-1.000000X0*%
G04 APERTURE END LIST*
D10*
%TO.C,C7*%
X122800470Y-103062500D03*
X122800470Y-101337500D03*
%TD*%
D11*
%TO.C,D7*%
X170325470Y-133333400D03*
X172075470Y-133333400D03*
%TD*%
D12*
%TO.C,U1*%
X126862970Y-127736051D03*
X126862970Y-128686051D03*
X126862970Y-129636051D03*
X129137970Y-129636051D03*
X129137970Y-128686051D03*
X129137970Y-127736051D03*
%TD*%
D13*
%TO.C,C11*%
X120937500Y-47100000D03*
X122662500Y-47100000D03*
%TD*%
D14*
%TO.C,R2*%
X127000000Y-119712500D03*
X127000000Y-117887500D03*
%TD*%
D10*
%TO.C,C8*%
X121000470Y-103062500D03*
X121000470Y-101337500D03*
%TD*%
D15*
%TO.C,R11*%
X109912970Y-118997002D03*
X108087970Y-118997002D03*
%TD*%
D11*
%TO.C,D8*%
X170325470Y-112000000D03*
X172075470Y-112000000D03*
%TD*%
D15*
%TO.C,R13*%
X109925000Y-107800000D03*
X108100000Y-107800000D03*
%TD*%
D16*
%TO.C,C9*%
X122662970Y-69245000D03*
X120937970Y-69245000D03*
%TD*%
D15*
%TO.C,R6*%
X109912970Y-129533400D03*
X108087970Y-129533400D03*
%TD*%
D17*
%TO.C,R1*%
X145000000Y-124450000D03*
X145000000Y-127550000D03*
%TD*%
D18*
%TO.C,L1*%
X123000470Y-124733400D03*
X123000470Y-121758400D03*
%TD*%
D11*
%TO.C,D6*%
X170450000Y-122600000D03*
X172200000Y-122600000D03*
%TD*%
D16*
%TO.C,C1*%
X128800470Y-124333400D03*
X127075470Y-124333400D03*
%TD*%
D10*
%TO.C,C5*%
X122200000Y-119612500D03*
X122200000Y-117887500D03*
%TD*%
D11*
%TO.C,D10*%
X170337500Y-101400000D03*
X172087500Y-101400000D03*
%TD*%
D19*
%TO.C,D5*%
X105800470Y-129533400D03*
X104050470Y-129533400D03*
%TD*%
D20*
%TO.C,R8*%
X166212500Y-122600000D03*
X168037500Y-122600000D03*
%TD*%
D19*
%TO.C,D11*%
X105812500Y-107800000D03*
X104062500Y-107800000D03*
%TD*%
D21*
%TO.C,D1*%
X131800000Y-133987500D03*
X131800000Y-132237500D03*
%TD*%
D10*
%TO.C,C6*%
X123800000Y-119612500D03*
X123800000Y-117887500D03*
%TD*%
D13*
%TO.C,C10*%
X120937500Y-45500000D03*
X122662500Y-45500000D03*
%TD*%
D14*
%TO.C,R4*%
X128800000Y-119712500D03*
X128800000Y-117887500D03*
%TD*%
D13*
%TO.C,C4*%
X127037500Y-122000000D03*
X128762500Y-122000000D03*
%TD*%
D22*
%TO.C,Q1*%
X145725000Y-137375000D03*
X151275000Y-137375000D03*
X145725000Y-132525000D03*
X151275000Y-132525000D03*
D23*
X145960000Y-144100000D03*
X151040000Y-144100000D03*
%TD*%
D14*
%TO.C,R3*%
X131800000Y-137625000D03*
X131800000Y-135800000D03*
%TD*%
D20*
%TO.C,R9*%
X166087970Y-133333400D03*
X167912970Y-133333400D03*
%TD*%
D19*
%TO.C,D4*%
X105800470Y-140533400D03*
X104050470Y-140533400D03*
%TD*%
D20*
%TO.C,R7*%
X120887970Y-67445000D03*
X122712970Y-67445000D03*
%TD*%
D24*
%TO.C,C13*%
X151137500Y-115575000D03*
X151137500Y-117300000D03*
%TD*%
D25*
%TO.C,D2*%
X150650000Y-154800000D03*
X146650000Y-154800000D03*
%TD*%
D10*
%TO.C,C3*%
X131000000Y-128862500D03*
X131000000Y-127137500D03*
%TD*%
D26*
%TO.C,D3*%
X151200000Y-127200000D03*
X151200000Y-123200000D03*
%TD*%
D20*
%TO.C,R10*%
X166087970Y-112000000D03*
X167912970Y-112000000D03*
%TD*%
%TO.C,R12*%
X166087500Y-101398000D03*
X167912500Y-101398000D03*
%TD*%
D12*
%TO.C,U4*%
X146912500Y-115587500D03*
X146912500Y-116537500D03*
X146912500Y-117487500D03*
X149187500Y-117487500D03*
X149187500Y-115587500D03*
%TD*%
D15*
%TO.C,R5*%
X109912970Y-140533400D03*
X108087970Y-140533400D03*
%TD*%
D13*
%TO.C,C12*%
X146875000Y-119337500D03*
X148600000Y-119337500D03*
%TD*%
D19*
%TO.C,D9*%
X105800470Y-118997002D03*
X104050470Y-118997002D03*
%TD*%
M02*
