%TF.GenerationSoftware,KiCad,Pcbnew,10.0.0*%
%TF.CreationDate,2026-07-10T00:05:46-05:00*%
%TF.ProjectId,BB-8,42422d38-2e6b-4696-9361-645f70636258,rev?*%
%TF.SameCoordinates,Original*%
%TF.FileFunction,Legend,Bot*%
%TF.FilePolarity,Positive*%
%FSLAX46Y46*%
G04 Gerber Fmt 4.6, Leading zero omitted, Abs format (unit mm)*
G04 Created by KiCad (PCBNEW 10.0.0) date 2026-07-10 00:05:46*
%MOMM*%
%LPD*%
G01*
G04 APERTURE LIST*
%ADD10C,0.250000*%
G04 APERTURE END LIST*
D10*
X152387907Y-147302714D02*
X152483146Y-147255095D01*
X152483146Y-147255095D02*
X152673622Y-147255095D01*
X152673622Y-147255095D02*
X152768860Y-147302714D01*
X152768860Y-147302714D02*
X152864098Y-147397952D01*
X152864098Y-147397952D02*
X152911717Y-147493190D01*
X152911717Y-147493190D02*
X152911717Y-147683666D01*
X152911717Y-147683666D02*
X152864098Y-147778904D01*
X152864098Y-147778904D02*
X152768860Y-147874142D01*
X152768860Y-147874142D02*
X152673622Y-147921761D01*
X152673622Y-147921761D02*
X152483146Y-147921761D01*
X152483146Y-147921761D02*
X152387907Y-147874142D01*
X152578384Y-146921761D02*
X152816479Y-146969380D01*
X152816479Y-146969380D02*
X153054574Y-147112238D01*
X153054574Y-147112238D02*
X153197431Y-147350333D01*
X153197431Y-147350333D02*
X153245050Y-147588428D01*
X153245050Y-147588428D02*
X153197431Y-147826523D01*
X153197431Y-147826523D02*
X153054574Y-148064619D01*
X153054574Y-148064619D02*
X152816479Y-148207476D01*
X152816479Y-148207476D02*
X152578384Y-148255095D01*
X152578384Y-148255095D02*
X152340288Y-148207476D01*
X152340288Y-148207476D02*
X152102193Y-148064619D01*
X152102193Y-148064619D02*
X151959336Y-147826523D01*
X151959336Y-147826523D02*
X151911717Y-147588428D01*
X151911717Y-147588428D02*
X151959336Y-147350333D01*
X151959336Y-147350333D02*
X152102193Y-147112238D01*
X152102193Y-147112238D02*
X152340288Y-146969380D01*
X152340288Y-146969380D02*
X152578384Y-146921761D01*
G36*
X151521964Y-148230000D02*
G01*
X151441547Y-147843302D01*
X151424516Y-147792101D01*
X151395629Y-147745910D01*
X151357418Y-147706666D01*
X151312892Y-147676545D01*
X151263570Y-147657169D01*
X151212264Y-147650778D01*
X150620769Y-147650778D01*
X150608068Y-147645771D01*
X150600619Y-147633803D01*
X150556655Y-147422288D01*
X150559098Y-147410321D01*
X150569722Y-147405314D01*
X151154562Y-147405314D01*
X151167323Y-147410321D01*
X151174712Y-147422288D01*
X151188878Y-147490432D01*
X151368213Y-147490432D01*
X151352459Y-147414595D01*
X151335379Y-147363340D01*
X151306481Y-147317142D01*
X151268278Y-147277858D01*
X151223743Y-147247594D01*
X151174356Y-147228029D01*
X151123054Y-147221582D01*
X150524965Y-147221582D01*
X150476144Y-147228314D01*
X150435694Y-147247716D01*
X150403365Y-147278073D01*
X150381350Y-147317325D01*
X150371611Y-147362373D01*
X150375732Y-147414595D01*
X150422871Y-147641496D01*
X150439742Y-147691818D01*
X150468850Y-147738278D01*
X150507263Y-147777914D01*
X150552320Y-147808620D01*
X150602004Y-147828510D01*
X150652459Y-147834998D01*
X151243893Y-147834998D01*
X151256655Y-147840066D01*
X151264043Y-147851973D01*
X151300985Y-148029720D01*
X151298604Y-148041688D01*
X151287918Y-148046695D01*
X150507135Y-148046695D01*
X150545237Y-148230000D01*
X151521964Y-148230000D01*
G37*
G36*
X150012394Y-147228656D02*
G01*
X150062185Y-147248998D01*
X150107122Y-147280274D01*
X150145594Y-147320683D01*
X150174727Y-147367850D01*
X150191695Y-147418869D01*
X150318274Y-148027766D01*
X150322368Y-148078840D01*
X150313023Y-148126013D01*
X150291580Y-148168111D01*
X150260083Y-148201118D01*
X150234228Y-148216978D01*
X150204857Y-148226644D01*
X150171057Y-148230000D01*
X149572967Y-148230000D01*
X149522492Y-148222942D01*
X149472339Y-148201118D01*
X149426918Y-148168017D01*
X149387953Y-148126013D01*
X149358319Y-148077780D01*
X149341547Y-148027766D01*
X149248479Y-147580069D01*
X149427826Y-147580069D01*
X149519295Y-148020073D01*
X149526744Y-148032041D01*
X149539445Y-148037048D01*
X150059255Y-148037048D01*
X149427826Y-147580069D01*
X149248479Y-147580069D01*
X149214968Y-147418869D01*
X149214234Y-147409588D01*
X149474476Y-147409588D01*
X150105478Y-147866566D01*
X150013948Y-147426563D01*
X150006620Y-147414595D01*
X149993859Y-147409588D01*
X149474476Y-147409588D01*
X149214234Y-147409588D01*
X149210849Y-147366790D01*
X149220525Y-147320683D01*
X149242420Y-147280214D01*
X149274380Y-147248998D01*
X149314597Y-147228959D01*
X149363407Y-147222009D01*
X149961496Y-147222009D01*
X150012394Y-147228656D01*
G37*
G36*
X149192864Y-148230000D02*
G01*
X149112447Y-147843302D01*
X149095416Y-147792101D01*
X149066530Y-147745910D01*
X149028318Y-147706666D01*
X148983792Y-147676545D01*
X148934470Y-147657169D01*
X148883164Y-147650778D01*
X148291669Y-147650778D01*
X148278968Y-147645771D01*
X148271519Y-147633803D01*
X148227555Y-147422288D01*
X148229998Y-147410321D01*
X148240622Y-147405314D01*
X148825462Y-147405314D01*
X148838224Y-147410321D01*
X148845612Y-147422288D01*
X148859778Y-147490432D01*
X149039113Y-147490432D01*
X149023360Y-147414595D01*
X149006279Y-147363340D01*
X148977381Y-147317142D01*
X148939178Y-147277858D01*
X148894644Y-147247594D01*
X148845256Y-147228029D01*
X148793954Y-147221582D01*
X148195865Y-147221582D01*
X148147045Y-147228314D01*
X148106594Y-147247716D01*
X148074265Y-147278073D01*
X148052250Y-147317325D01*
X148042511Y-147362373D01*
X148046632Y-147414595D01*
X148093771Y-147641496D01*
X148110642Y-147691818D01*
X148139750Y-147738278D01*
X148178163Y-147777914D01*
X148223220Y-147808620D01*
X148272904Y-147828510D01*
X148323360Y-147834998D01*
X148914794Y-147834998D01*
X148927555Y-147840066D01*
X148934944Y-147851973D01*
X148971885Y-148029720D01*
X148969504Y-148041688D01*
X148958818Y-148046695D01*
X148178035Y-148046695D01*
X148216137Y-148230000D01*
X149192864Y-148230000D01*
G37*
G36*
X147683637Y-147228029D02*
G01*
X147733025Y-147247594D01*
X147777559Y-147277858D01*
X147815762Y-147317142D01*
X147844660Y-147363340D01*
X147861741Y-147414595D01*
X147991189Y-148037414D01*
X147995184Y-148088439D01*
X147985511Y-148133463D01*
X147963662Y-148172891D01*
X147931777Y-148203560D01*
X147891581Y-148223145D01*
X147841957Y-148230000D01*
X147243867Y-148230000D01*
X147193477Y-148223498D01*
X147143850Y-148203560D01*
X147098800Y-148172835D01*
X147060380Y-148133463D01*
X147031282Y-148087360D01*
X147014462Y-148037414D01*
X146970162Y-147824190D01*
X147149467Y-147824190D01*
X147192210Y-148029720D01*
X147199659Y-148041688D01*
X147212360Y-148046695D01*
X147797199Y-148046695D01*
X147807885Y-148041688D01*
X147810266Y-148029720D01*
X147763982Y-147807215D01*
X147162534Y-147807215D01*
X147151910Y-147812222D01*
X147149467Y-147824190D01*
X146970162Y-147824190D01*
X146968361Y-147815519D01*
X146964248Y-147763548D01*
X146973918Y-147718128D01*
X146995959Y-147678625D01*
X147028323Y-147648579D01*
X147068791Y-147629549D01*
X147117655Y-147622934D01*
X147709089Y-147622934D01*
X147719713Y-147617744D01*
X147722095Y-147605532D01*
X147683993Y-147422288D01*
X147676605Y-147410321D01*
X147663843Y-147405314D01*
X147039619Y-147405314D01*
X147001456Y-147221582D01*
X147632336Y-147221582D01*
X147683637Y-147228029D01*
G37*
G36*
X146455390Y-148230000D02*
G01*
X146245830Y-147222009D01*
X146063686Y-147222009D01*
X146149110Y-147632887D01*
X145917262Y-147632887D01*
X145495027Y-147222009D01*
X145297923Y-147222009D01*
X145308853Y-147274521D01*
X145773342Y-147726004D01*
X145496127Y-148177426D01*
X145507056Y-148230000D01*
X145704588Y-148230000D01*
X145955975Y-147819122D01*
X146187822Y-147819122D01*
X146273246Y-148230000D01*
X146455390Y-148230000D01*
G37*
G36*
X145040760Y-147424524D02*
G01*
X145090134Y-147444515D01*
X145134923Y-147475183D01*
X145173299Y-147514612D01*
X145202382Y-147560656D01*
X145219155Y-147610539D01*
X145307876Y-148037414D01*
X145311809Y-148088428D01*
X145301953Y-148133463D01*
X145279951Y-148172892D01*
X145247976Y-148203560D01*
X145207922Y-148223196D01*
X145159560Y-148230000D01*
X144541442Y-148230000D01*
X144503340Y-148046695D01*
X145113886Y-148046695D01*
X145124572Y-148041688D01*
X145126953Y-148029720D01*
X145103323Y-147916147D01*
X144476168Y-147916147D01*
X144414276Y-147618293D01*
X144593954Y-147618293D01*
X144621615Y-147751161D01*
X145069068Y-147751161D01*
X145041407Y-147618293D01*
X145034080Y-147606325D01*
X145021257Y-147601318D01*
X144607021Y-147601318D01*
X144596397Y-147606325D01*
X144593954Y-147618293D01*
X144414276Y-147618293D01*
X144412665Y-147610539D01*
X144408711Y-147559847D01*
X144418283Y-147514673D01*
X144439927Y-147474983D01*
X144471711Y-147444392D01*
X144511792Y-147424856D01*
X144561348Y-147418014D01*
X144990727Y-147418014D01*
X145040760Y-147424524D01*
G37*
G36*
X144047034Y-148230000D02*
G01*
X144315518Y-147418014D01*
X144108461Y-147418014D01*
X143917951Y-148007006D01*
X143482466Y-147418014D01*
X143275471Y-147418014D01*
X143882964Y-148230000D01*
X144047034Y-148230000D01*
G37*
G36*
X143327128Y-148230000D02*
G01*
X143158295Y-147418014D01*
X142979021Y-147418014D01*
X143147854Y-148230000D01*
X143327128Y-148230000D01*
G37*
G36*
X143141320Y-147336254D02*
G01*
X143103035Y-147151973D01*
X142923761Y-147151973D01*
X142962046Y-147336254D01*
X143141320Y-147336254D01*
G37*
G36*
X142982440Y-148230000D02*
G01*
X142813607Y-147418014D01*
X142195429Y-147418014D01*
X142146768Y-147424835D01*
X142106463Y-147444515D01*
X142074357Y-147475183D01*
X142052669Y-147514612D01*
X142043162Y-147559566D01*
X142047173Y-147610539D01*
X142175950Y-148230000D01*
X142355286Y-148230000D01*
X142228096Y-147618293D01*
X142230539Y-147606325D01*
X142241163Y-147601318D01*
X142655399Y-147601318D01*
X142668405Y-147606325D01*
X142675976Y-147618293D01*
X142803166Y-148230000D01*
X142982440Y-148230000D01*
G37*
G36*
X141577739Y-148230000D02*
G01*
X141396999Y-148230000D01*
X141325436Y-147885678D01*
X140711653Y-147884701D01*
X140660591Y-147878195D01*
X140610354Y-147858262D01*
X140564830Y-147827346D01*
X140525907Y-147787248D01*
X140496440Y-147740267D01*
X140479439Y-147689673D01*
X140424476Y-147425158D01*
X140607117Y-147425158D01*
X140660484Y-147681980D01*
X140667873Y-147693764D01*
X140680512Y-147698527D01*
X141269870Y-147698527D01*
X141280617Y-147693764D01*
X141283060Y-147681980D01*
X141229692Y-147425158D01*
X141222304Y-147413190D01*
X141209542Y-147408183D01*
X140620184Y-147408183D01*
X140609560Y-147413190D01*
X140607117Y-147425158D01*
X140424476Y-147425158D01*
X140423080Y-147418442D01*
X140419069Y-147366780D01*
X140428942Y-147320928D01*
X140451236Y-147280760D01*
X140483897Y-147249914D01*
X140524815Y-147230240D01*
X140574206Y-147223414D01*
X141368483Y-147223414D01*
X141577739Y-148230000D01*
G37*
G36*
X140474982Y-148230000D02*
G01*
X140290884Y-147344558D01*
X140274152Y-147294529D01*
X140245211Y-147248326D01*
X140206987Y-147208837D01*
X140162351Y-147178290D01*
X140112887Y-147158491D01*
X140061540Y-147151973D01*
X139761854Y-147151973D01*
X139800139Y-147336254D01*
X140093230Y-147336254D01*
X140105992Y-147341261D01*
X140113381Y-147353229D01*
X140126814Y-147418014D01*
X139817114Y-147418014D01*
X139855216Y-147601318D01*
X140164916Y-147601318D01*
X140295647Y-148230000D01*
X140474982Y-148230000D01*
G37*
G36*
X139568744Y-147424524D02*
G01*
X139618117Y-147444515D01*
X139662906Y-147475183D01*
X139701282Y-147514612D01*
X139730366Y-147560656D01*
X139747138Y-147610539D01*
X139835860Y-148037414D01*
X139839792Y-148088428D01*
X139829937Y-148133463D01*
X139807934Y-148172892D01*
X139775959Y-148203560D01*
X139735905Y-148223196D01*
X139687543Y-148230000D01*
X139069426Y-148230000D01*
X139031324Y-148046695D01*
X139641870Y-148046695D01*
X139652555Y-148041688D01*
X139654937Y-148029720D01*
X139631306Y-147916147D01*
X139004152Y-147916147D01*
X138942259Y-147618293D01*
X139121938Y-147618293D01*
X139149598Y-147751161D01*
X139597051Y-147751161D01*
X139569391Y-147618293D01*
X139562063Y-147606325D01*
X139549241Y-147601318D01*
X139135005Y-147601318D01*
X139124380Y-147606325D01*
X139121938Y-147618293D01*
X138942259Y-147618293D01*
X138940648Y-147610539D01*
X138936694Y-147559847D01*
X138946266Y-147514673D01*
X138967910Y-147474983D01*
X138999694Y-147444392D01*
X139039775Y-147424856D01*
X139089331Y-147418014D01*
X139518710Y-147418014D01*
X139568744Y-147424524D01*
G37*
G36*
X138904989Y-148230000D02*
G01*
X138720891Y-147344558D01*
X138704159Y-147294529D01*
X138675218Y-147248326D01*
X138636994Y-147208837D01*
X138592358Y-147178290D01*
X138542894Y-147158491D01*
X138491547Y-147151973D01*
X138191861Y-147151973D01*
X138230146Y-147336254D01*
X138523237Y-147336254D01*
X138535999Y-147341261D01*
X138543387Y-147353229D01*
X138556821Y-147418014D01*
X138247121Y-147418014D01*
X138285223Y-147601318D01*
X138594923Y-147601318D01*
X138725654Y-148230000D01*
X138904989Y-148230000D01*
G37*
G36*
X138303175Y-148230000D02*
G01*
X138119077Y-147344558D01*
X138102344Y-147294529D01*
X138073403Y-147248326D01*
X138035180Y-147208837D01*
X137990544Y-147178290D01*
X137941079Y-147158491D01*
X137889733Y-147151973D01*
X137590047Y-147151973D01*
X137628332Y-147336254D01*
X137921423Y-147336254D01*
X137934185Y-147341261D01*
X137941573Y-147353229D01*
X137955006Y-147418014D01*
X137645307Y-147418014D01*
X137683408Y-147601318D01*
X137993108Y-147601318D01*
X138123839Y-148230000D01*
X138303175Y-148230000D01*
G37*
G36*
X137396936Y-147424524D02*
G01*
X137446310Y-147444515D01*
X137491099Y-147475183D01*
X137529474Y-147514612D01*
X137558558Y-147560656D01*
X137575331Y-147610539D01*
X137664052Y-148037414D01*
X137667985Y-148088428D01*
X137658129Y-148133463D01*
X137636127Y-148172892D01*
X137604152Y-148203560D01*
X137564098Y-148223196D01*
X137515736Y-148230000D01*
X136897618Y-148230000D01*
X136859516Y-148046695D01*
X137470062Y-148046695D01*
X137480748Y-148041688D01*
X137483129Y-148029720D01*
X137459499Y-147916147D01*
X136832344Y-147916147D01*
X136770452Y-147618293D01*
X136950130Y-147618293D01*
X136977791Y-147751161D01*
X137425244Y-147751161D01*
X137397583Y-147618293D01*
X137390256Y-147606325D01*
X137377433Y-147601318D01*
X136963197Y-147601318D01*
X136952573Y-147606325D01*
X136950130Y-147618293D01*
X136770452Y-147618293D01*
X136768841Y-147610539D01*
X136764887Y-147559847D01*
X136774459Y-147514673D01*
X136796103Y-147474983D01*
X136827887Y-147444392D01*
X136867967Y-147424856D01*
X136917524Y-147418014D01*
X137346903Y-147418014D01*
X137396936Y-147424524D01*
G37*
G36*
X136743318Y-148230000D02*
G01*
X136614541Y-147610539D01*
X136597768Y-147560656D01*
X136568684Y-147514612D01*
X136530257Y-147475203D01*
X136485214Y-147444515D01*
X136435531Y-147424528D01*
X136385136Y-147418014D01*
X135944460Y-147418014D01*
X135982562Y-147601318D01*
X136416704Y-147601318D01*
X136429466Y-147606325D01*
X136436854Y-147618293D01*
X136564043Y-148230000D01*
X136743318Y-148230000D01*
G37*
G36*
X136018588Y-148230000D02*
G01*
X135980486Y-148046695D01*
X135801212Y-148046695D01*
X135839314Y-148230000D01*
X136018588Y-148230000D01*
G37*
G36*
X134918474Y-147228475D02*
G01*
X134968710Y-147248265D01*
X135014078Y-147279008D01*
X135052608Y-147319035D01*
X135081679Y-147366002D01*
X135098647Y-147417037D01*
X135267663Y-148230000D01*
X135086924Y-148230000D01*
X135016582Y-147891723D01*
X134394007Y-147891723D01*
X134464349Y-148230000D01*
X134281716Y-148230000D01*
X134114300Y-147424731D01*
X134296920Y-147424731D01*
X134355416Y-147705915D01*
X134977991Y-147705915D01*
X134919495Y-147424731D01*
X134912168Y-147412763D01*
X134899345Y-147407756D01*
X134309987Y-147407756D01*
X134299363Y-147412763D01*
X134296920Y-147424731D01*
X134114300Y-147424731D01*
X134112700Y-147417037D01*
X134108646Y-147364949D01*
X134118501Y-147319035D01*
X134140810Y-147278959D01*
X134173517Y-147248265D01*
X134214426Y-147228780D01*
X134263886Y-147222009D01*
X134867349Y-147222009D01*
X134918474Y-147228475D01*
G37*
G36*
X133917123Y-148230000D02*
G01*
X133965485Y-148223196D01*
X134005539Y-148203560D01*
X134037513Y-148172892D01*
X134059516Y-148133463D01*
X134069372Y-148088428D01*
X134065439Y-148037414D01*
X133881158Y-147151057D01*
X133700907Y-147151057D01*
X133883600Y-148029720D01*
X133881219Y-148041688D01*
X133870533Y-148046695D01*
X133718431Y-148046695D01*
X133756533Y-148230000D01*
X133917123Y-148230000D01*
G37*
G36*
X133451107Y-148230000D02*
G01*
X133499469Y-148223196D01*
X133539523Y-148203560D01*
X133571498Y-148172892D01*
X133593501Y-148133463D01*
X133603356Y-148088428D01*
X133599424Y-148037414D01*
X133415143Y-147151057D01*
X133234891Y-147151057D01*
X133417585Y-148029720D01*
X133415204Y-148041688D01*
X133404518Y-148046695D01*
X133252416Y-148046695D01*
X133290518Y-148230000D01*
X133451107Y-148230000D01*
G37*
G36*
X132755321Y-148230000D02*
G01*
X132626543Y-147610539D01*
X132609771Y-147560656D01*
X132580687Y-147514612D01*
X132542259Y-147475203D01*
X132497217Y-147444515D01*
X132447534Y-147424528D01*
X132397138Y-147418014D01*
X131956463Y-147418014D01*
X131994565Y-147601318D01*
X132428707Y-147601318D01*
X132441468Y-147606325D01*
X132448857Y-147618293D01*
X132576046Y-148230000D01*
X132755321Y-148230000D01*
G37*
G36*
X132005983Y-148230000D02*
G01*
X131837151Y-147418014D01*
X131657876Y-147418014D01*
X131826709Y-148230000D01*
X132005983Y-148230000D01*
G37*
G36*
X131820176Y-147336254D02*
G01*
X131781891Y-147151973D01*
X131602616Y-147151973D01*
X131640901Y-147336254D01*
X131820176Y-147336254D01*
G37*
G36*
X131402619Y-147424524D02*
G01*
X131452346Y-147444515D01*
X131497389Y-147475203D01*
X131535816Y-147514612D01*
X131564852Y-147560652D01*
X131581612Y-147610539D01*
X131670333Y-148037414D01*
X131674225Y-148088156D01*
X131664471Y-148133401D01*
X131642467Y-148173031D01*
X131610249Y-148203682D01*
X131569846Y-148223224D01*
X131521100Y-148230000D01*
X131082623Y-148230000D01*
X131107353Y-148348885D01*
X131114802Y-148360853D01*
X131127503Y-148365860D01*
X131606280Y-148365860D01*
X131644687Y-148550629D01*
X131158400Y-148550629D01*
X131107411Y-148544178D01*
X131057711Y-148524495D01*
X131012852Y-148494075D01*
X130975157Y-148454886D01*
X130946794Y-148408799D01*
X130929911Y-148357616D01*
X130776184Y-147618293D01*
X130955434Y-147618293D01*
X131040980Y-148029720D01*
X131048429Y-148041688D01*
X131061130Y-148046695D01*
X131476343Y-148046695D01*
X131487028Y-148041688D01*
X131489410Y-148029720D01*
X131403864Y-147618293D01*
X131396536Y-147606325D01*
X131383714Y-147601318D01*
X130968501Y-147601318D01*
X130957876Y-147606325D01*
X130955434Y-147618293D01*
X130776184Y-147618293D01*
X130774572Y-147610539D01*
X130770514Y-147559557D01*
X130779884Y-147514612D01*
X130801361Y-147475161D01*
X130833129Y-147444515D01*
X130873235Y-147424889D01*
X130922889Y-147418014D01*
X131352267Y-147418014D01*
X131402619Y-147424524D01*
G37*
G36*
X130737081Y-148230000D02*
G01*
X130512988Y-147151973D01*
X130333714Y-147151973D01*
X130388974Y-147418014D01*
X129950069Y-147418014D01*
X129901774Y-147424832D01*
X129861775Y-147444515D01*
X129829772Y-147475150D01*
X129807798Y-147514612D01*
X129797928Y-147559587D01*
X129801814Y-147610539D01*
X129930591Y-148230000D01*
X130109926Y-148230000D01*
X129982737Y-147618293D01*
X129985179Y-147606325D01*
X129995804Y-147601318D01*
X130410040Y-147601318D01*
X130423046Y-147606325D01*
X130430617Y-147618293D01*
X130557807Y-148230000D01*
X130737081Y-148230000D01*
G37*
G36*
X129614174Y-148230000D02*
G01*
X129663851Y-148223143D01*
X129704056Y-148203560D01*
X129735940Y-148172891D01*
X129757789Y-148133463D01*
X129767463Y-148088439D01*
X129763468Y-148037414D01*
X129583033Y-147169375D01*
X129403698Y-147169375D01*
X129455355Y-147418014D01*
X129145655Y-147418014D01*
X129183757Y-147601318D01*
X129493457Y-147601318D01*
X129582545Y-148029720D01*
X129580163Y-148041688D01*
X129569478Y-148046695D01*
X129276386Y-148046695D01*
X129314488Y-148230000D01*
X129614174Y-148230000D01*
G37*
G36*
X128999659Y-148230000D02*
G01*
X129047968Y-148223198D01*
X129088014Y-148203560D01*
X129120038Y-148172887D01*
X129142053Y-148133463D01*
X129151863Y-148088431D01*
X129147915Y-148037414D01*
X129141381Y-148005968D01*
X128962107Y-148005968D01*
X128967053Y-148029720D01*
X128964672Y-148041688D01*
X128953986Y-148046695D01*
X128539750Y-148046695D01*
X128527049Y-148041688D01*
X128519661Y-148029720D01*
X128499572Y-147933122D01*
X128501953Y-147921154D01*
X128512578Y-147916147D01*
X128934385Y-147916147D01*
X128982690Y-147909331D01*
X129022740Y-147889647D01*
X129054764Y-147858974D01*
X129076779Y-147819549D01*
X129086603Y-147774569D01*
X129082702Y-147723562D01*
X129059193Y-147610539D01*
X129042434Y-147560652D01*
X129013398Y-147514612D01*
X128975023Y-147475183D01*
X128930233Y-147444515D01*
X128880816Y-147424521D01*
X128830826Y-147418014D01*
X128401448Y-147418014D01*
X128351837Y-147424885D01*
X128311688Y-147444515D01*
X128279783Y-147475141D01*
X128257833Y-147514612D01*
X128247963Y-147559587D01*
X128251849Y-147610539D01*
X128258382Y-147642046D01*
X128439061Y-147642046D01*
X128434115Y-147618293D01*
X128436557Y-147606325D01*
X128447121Y-147601318D01*
X128861357Y-147601318D01*
X128874180Y-147606325D01*
X128881507Y-147618293D01*
X128901596Y-147714891D01*
X128899214Y-147726859D01*
X128888529Y-147731866D01*
X128466721Y-147731866D01*
X128417111Y-147738737D01*
X128376962Y-147758367D01*
X128345008Y-147788998D01*
X128323046Y-147828464D01*
X128313191Y-147873446D01*
X128317123Y-147924452D01*
X128340570Y-148037414D01*
X128357390Y-148087360D01*
X128386488Y-148133463D01*
X128424796Y-148172857D01*
X128469530Y-148203560D01*
X128518993Y-148223455D01*
X128570280Y-148230000D01*
X128999659Y-148230000D01*
G37*
G36*
X127794260Y-148230000D02*
G01*
X127665483Y-147610539D01*
X127648710Y-147560656D01*
X127619626Y-147514612D01*
X127581199Y-147475203D01*
X127536156Y-147444515D01*
X127486473Y-147424528D01*
X127436078Y-147418014D01*
X126995403Y-147418014D01*
X127033504Y-147601318D01*
X127467646Y-147601318D01*
X127480408Y-147606325D01*
X127487796Y-147618293D01*
X127614986Y-148230000D01*
X127794260Y-148230000D01*
G37*
G36*
X126748925Y-147424524D02*
G01*
X126798299Y-147444515D01*
X126843088Y-147475183D01*
X126881463Y-147514612D01*
X126910547Y-147560656D01*
X126927320Y-147610539D01*
X127016041Y-148037414D01*
X127019973Y-148088428D01*
X127010118Y-148133463D01*
X126988115Y-148172892D01*
X126956140Y-148203560D01*
X126916087Y-148223196D01*
X126867725Y-148230000D01*
X126249607Y-148230000D01*
X126211505Y-148046695D01*
X126822051Y-148046695D01*
X126832737Y-148041688D01*
X126835118Y-148029720D01*
X126811488Y-147916147D01*
X126184333Y-147916147D01*
X126122441Y-147618293D01*
X126302119Y-147618293D01*
X126329780Y-147751161D01*
X126777233Y-147751161D01*
X126749572Y-147618293D01*
X126742245Y-147606325D01*
X126729422Y-147601318D01*
X126315186Y-147601318D01*
X126304562Y-147606325D01*
X126302119Y-147618293D01*
X126122441Y-147618293D01*
X126120830Y-147610539D01*
X126116876Y-147559847D01*
X126126448Y-147514673D01*
X126148092Y-147474983D01*
X126179876Y-147444392D01*
X126219956Y-147424856D01*
X126269513Y-147418014D01*
X126698892Y-147418014D01*
X126748925Y-147424524D01*
G37*
G36*
X125913407Y-148230000D02*
G01*
X125961716Y-148223198D01*
X126001762Y-148203560D01*
X126033786Y-148172887D01*
X126055800Y-148133463D01*
X126065610Y-148088431D01*
X126061662Y-148037414D01*
X126055129Y-148005968D01*
X125875854Y-148005968D01*
X125880800Y-148029720D01*
X125878419Y-148041688D01*
X125867733Y-148046695D01*
X125453497Y-148046695D01*
X125440797Y-148041688D01*
X125433408Y-148029720D01*
X125413319Y-147933122D01*
X125415701Y-147921154D01*
X125426325Y-147916147D01*
X125848133Y-147916147D01*
X125896438Y-147909331D01*
X125936488Y-147889647D01*
X125968512Y-147858974D01*
X125990526Y-147819549D01*
X126000351Y-147774569D01*
X125996449Y-147723562D01*
X125972941Y-147610539D01*
X125956181Y-147560652D01*
X125927145Y-147514612D01*
X125888770Y-147475183D01*
X125843981Y-147444515D01*
X125794563Y-147424521D01*
X125744574Y-147418014D01*
X125315195Y-147418014D01*
X125265585Y-147424885D01*
X125225436Y-147444515D01*
X125193530Y-147475141D01*
X125171580Y-147514612D01*
X125161710Y-147559587D01*
X125165596Y-147610539D01*
X125172130Y-147642046D01*
X125352808Y-147642046D01*
X125347862Y-147618293D01*
X125350305Y-147606325D01*
X125360868Y-147601318D01*
X125775104Y-147601318D01*
X125787927Y-147606325D01*
X125795254Y-147618293D01*
X125815343Y-147714891D01*
X125812962Y-147726859D01*
X125802276Y-147731866D01*
X125380469Y-147731866D01*
X125330859Y-147738737D01*
X125290710Y-147758367D01*
X125258755Y-147788998D01*
X125236793Y-147828464D01*
X125226938Y-147873446D01*
X125230870Y-147924452D01*
X125254317Y-148037414D01*
X125271137Y-148087360D01*
X125300235Y-148133463D01*
X125338544Y-148172857D01*
X125383278Y-148203560D01*
X125432740Y-148223455D01*
X125484028Y-148230000D01*
X125913407Y-148230000D01*
G37*
G36*
X124857508Y-147424524D02*
G01*
X124906882Y-147444515D01*
X124951671Y-147475183D01*
X124990047Y-147514612D01*
X125019131Y-147560656D01*
X125035903Y-147610539D01*
X125124624Y-148037414D01*
X125128557Y-148088428D01*
X125118702Y-148133463D01*
X125096699Y-148172892D01*
X125064724Y-148203560D01*
X125024670Y-148223196D01*
X124976308Y-148230000D01*
X124358190Y-148230000D01*
X124320088Y-148046695D01*
X124930635Y-148046695D01*
X124941320Y-148041688D01*
X124943702Y-148029720D01*
X124920071Y-147916147D01*
X124292916Y-147916147D01*
X124231024Y-147618293D01*
X124410703Y-147618293D01*
X124438363Y-147751161D01*
X124885816Y-147751161D01*
X124858155Y-147618293D01*
X124850828Y-147606325D01*
X124838005Y-147601318D01*
X124423770Y-147601318D01*
X124413145Y-147606325D01*
X124410703Y-147618293D01*
X124231024Y-147618293D01*
X124229413Y-147610539D01*
X124225459Y-147559847D01*
X124235031Y-147514673D01*
X124256675Y-147474983D01*
X124288459Y-147444392D01*
X124328540Y-147424856D01*
X124378096Y-147418014D01*
X124807475Y-147418014D01*
X124857508Y-147424524D01*
G37*
G36*
X124203890Y-148230000D02*
G01*
X124075113Y-147610539D01*
X124058340Y-147560656D01*
X124029256Y-147514612D01*
X123990829Y-147475203D01*
X123945786Y-147444515D01*
X123896104Y-147424528D01*
X123845708Y-147418014D01*
X123405033Y-147418014D01*
X123443135Y-147601318D01*
X123877276Y-147601318D01*
X123890038Y-147606325D01*
X123897426Y-147618293D01*
X124024616Y-148230000D01*
X124203890Y-148230000D01*
G37*
G36*
X123069504Y-148230000D02*
G01*
X123337988Y-147418014D01*
X123130931Y-147418014D01*
X122940422Y-148007006D01*
X122504937Y-147418014D01*
X122297941Y-147418014D01*
X122905434Y-148230000D01*
X123069504Y-148230000D01*
G37*
G36*
X122094633Y-147424524D02*
G01*
X122144007Y-147444515D01*
X122188796Y-147475183D01*
X122227172Y-147514612D01*
X122256255Y-147560656D01*
X122273028Y-147610539D01*
X122361749Y-148037414D01*
X122365682Y-148088428D01*
X122355826Y-148133463D01*
X122333824Y-148172892D01*
X122301849Y-148203560D01*
X122261795Y-148223196D01*
X122213433Y-148230000D01*
X121595315Y-148230000D01*
X121557213Y-148046695D01*
X122167759Y-148046695D01*
X122178445Y-148041688D01*
X122180826Y-148029720D01*
X122157196Y-147916147D01*
X121530041Y-147916147D01*
X121468149Y-147618293D01*
X121647827Y-147618293D01*
X121675488Y-147751161D01*
X122122941Y-147751161D01*
X122095280Y-147618293D01*
X122087953Y-147606325D01*
X122075130Y-147601318D01*
X121660894Y-147601318D01*
X121650270Y-147606325D01*
X121647827Y-147618293D01*
X121468149Y-147618293D01*
X121466538Y-147610539D01*
X121462584Y-147559847D01*
X121472156Y-147514673D01*
X121493800Y-147474983D01*
X121525584Y-147444392D01*
X121565665Y-147424856D01*
X121615221Y-147418014D01*
X122044600Y-147418014D01*
X122094633Y-147424524D01*
G37*
G36*
X120674947Y-147418014D02*
G01*
X121114340Y-147418014D01*
X121165589Y-147424568D01*
X121215151Y-147444515D01*
X121259808Y-147475199D01*
X121297827Y-147514612D01*
X121326528Y-147560624D01*
X121343196Y-147610539D01*
X121431917Y-148037414D01*
X121435887Y-148088169D01*
X121426360Y-148133401D01*
X121404676Y-148173054D01*
X121372871Y-148203682D01*
X121332700Y-148223178D01*
X121283173Y-148230000D01*
X120664506Y-148230000D01*
X120537348Y-147618293D01*
X120716591Y-147618293D01*
X120802137Y-148029720D01*
X120809586Y-148041688D01*
X120822287Y-148046695D01*
X121236584Y-148046695D01*
X121247269Y-148041688D01*
X121249651Y-148029720D01*
X121164105Y-147618293D01*
X121156716Y-147606325D01*
X121143954Y-147601318D01*
X120729658Y-147601318D01*
X120719033Y-147606325D01*
X120716591Y-147618293D01*
X120537348Y-147618293D01*
X120440413Y-147151973D01*
X120619687Y-147151973D01*
X120674947Y-147418014D01*
G37*
M02*
