%TF.GenerationSoftware,KiCad,Pcbnew,10.0.0*%
%TF.CreationDate,2026-08-22T17:48:27-05:00*%
%TF.ProjectId,Project_Roll,50726f6a-6563-4745-9f52-6f6c6c2e6b69,rev?*%
%TF.SameCoordinates,Original*%
%TF.FileFunction,Soldermask,Bot*%
%TF.FilePolarity,Negative*%
%FSLAX46Y46*%
G04 Gerber Fmt 4.6, Leading zero omitted, Abs format (unit mm)*
G04 Created by KiCad (PCBNEW 10.0.0) date 2026-08-22 17:48:27*
%MOMM*%
%LPD*%
G01*
G04 APERTURE LIST*
G04 Aperture macros list*
%AMRoundRect*
0 Rectangle with rounded corners*
0 $1 Rounding radius*
0 $2 $3 $4 $5 $6 $7 $8 $9 X,Y pos of 4 corners*
0 Add a 4 corners polygon primitive as box body*
4,1,4,$2,$3,$4,$5,$6,$7,$8,$9,$2,$3,0*
0 Add four circle primitives for the rounded corners*
1,1,$1+$1,$2,$3*
1,1,$1+$1,$4,$5*
1,1,$1+$1,$6,$7*
1,1,$1+$1,$8,$9*
0 Add four rect primitives between the rounded corners*
20,1,$1+$1,$2,$3,$4,$5,0*
20,1,$1+$1,$4,$5,$6,$7,0*
20,1,$1+$1,$6,$7,$8,$9,0*
20,1,$1+$1,$8,$9,$2,$3,0*%
G04 Aperture macros list end*
%ADD10C,2.235200*%
%ADD11RoundRect,0.381000X-0.889000X-0.889000X0.889000X-0.889000X0.889000X0.889000X-0.889000X0.889000X0*%
%ADD12C,2.540000*%
%ADD13C,4.000000*%
%ADD14RoundRect,0.250000X-0.625000X0.350000X-0.625000X-0.350000X0.625000X-0.350000X0.625000X0.350000X0*%
%ADD15O,1.750000X1.200000*%
%ADD16C,4.200000*%
%ADD17RoundRect,0.250000X0.625000X-0.350000X0.625000X0.350000X-0.625000X0.350000X-0.625000X-0.350000X0*%
%ADD18RoundRect,0.250000X0.550000X-0.550000X0.550000X0.550000X-0.550000X0.550000X-0.550000X-0.550000X0*%
%ADD19C,1.600000*%
%ADD20RoundRect,0.102000X-0.975000X0.975000X-0.975000X-0.975000X0.975000X-0.975000X0.975000X0.975000X0*%
%ADD21C,2.154000*%
%ADD22RoundRect,0.750000X0.750000X0.750000X-0.750000X0.750000X-0.750000X-0.750000X0.750000X-0.750000X0*%
%ADD23C,3.000000*%
%ADD24RoundRect,0.102000X0.975000X-0.975000X0.975000X0.975000X-0.975000X0.975000X-0.975000X-0.975000X0*%
%ADD25RoundRect,0.102000X1.000000X1.000000X-1.000000X1.000000X-1.000000X-1.000000X1.000000X-1.000000X0*%
%ADD26C,2.204000*%
%ADD27R,1.700000X1.700000*%
%ADD28C,1.700000*%
G04 APERTURE END LIST*
D10*
%TO.C,F1*%
X135314900Y-141481000D03*
X138616900Y-141481000D03*
X135314900Y-128019000D03*
X138616900Y-128019000D03*
%TD*%
D11*
%TO.C,J17*%
X109870000Y-155940000D03*
D12*
X112690000Y-155940000D03*
D13*
X98700000Y-150300000D03*
D12*
X115510000Y-155940000D03*
D13*
X126900000Y-150275000D03*
%TD*%
D10*
%TO.C,F7*%
X159738000Y-114961902D03*
X159738000Y-118263902D03*
X173200000Y-114961902D03*
X173200000Y-118263902D03*
%TD*%
D14*
%TO.C,J8*%
X94199530Y-74350000D03*
D15*
X94199530Y-76350000D03*
X94199530Y-78350000D03*
X94199530Y-80350000D03*
%TD*%
D16*
%TO.C,H2*%
X182600000Y-41600000D03*
%TD*%
D17*
%TO.C,J7*%
X181600000Y-69400000D03*
D15*
X181600000Y-67400000D03*
X181600000Y-65400000D03*
X181600000Y-63400000D03*
X181600000Y-61400000D03*
%TD*%
D17*
%TO.C,J11*%
X181650000Y-91400000D03*
D15*
X181650000Y-89400000D03*
X181650000Y-87400000D03*
X181650000Y-85400000D03*
%TD*%
D18*
%TO.C,C2*%
X136900000Y-121452651D03*
D19*
X136900000Y-117952651D03*
%TD*%
D20*
%TO.C,J2*%
X94562970Y-123500000D03*
D21*
X94562970Y-128500000D03*
%TD*%
D14*
%TO.C,J9*%
X94199530Y-85350000D03*
D15*
X94199530Y-87350000D03*
X94199530Y-89350000D03*
X94199530Y-91350000D03*
%TD*%
D22*
%TO.C,J1*%
X133600000Y-154400000D03*
D23*
X138600000Y-154400000D03*
%TD*%
D24*
%TO.C,J4*%
X181200470Y-139198300D03*
D21*
X181200470Y-134198300D03*
%TD*%
D10*
%TO.C,F8*%
X116210100Y-104602000D03*
X116210100Y-101300000D03*
X102748100Y-104602000D03*
X102748100Y-101300000D03*
%TD*%
%TO.C,F5*%
X159738000Y-125863200D03*
X159738000Y-129165200D03*
X173200000Y-125863200D03*
X173200000Y-129165200D03*
%TD*%
%TO.C,F3*%
X116198070Y-136933400D03*
X116198070Y-133631400D03*
X102736070Y-136933400D03*
X102736070Y-133631400D03*
%TD*%
D24*
%TO.C,J14*%
X181200470Y-117697002D03*
D21*
X181200470Y-112697002D03*
%TD*%
D10*
%TO.C,F4*%
X159738470Y-136498300D03*
X159738470Y-139800300D03*
X173200470Y-136498300D03*
X173200470Y-139800300D03*
%TD*%
D23*
%TO.C,U3*%
X150780470Y-111120000D03*
X150780470Y-64170000D03*
X126270470Y-111120000D03*
X126270470Y-64170000D03*
D25*
X151200470Y-103160000D03*
D26*
X151200470Y-100620000D03*
X151200470Y-98080000D03*
X151200470Y-95540000D03*
X151200470Y-93000000D03*
X151200470Y-90460000D03*
X151200470Y-87920000D03*
X151200470Y-85380000D03*
X151200470Y-82840000D03*
X151200470Y-80300000D03*
X151200470Y-77760000D03*
X151200470Y-75220000D03*
X151200470Y-72680000D03*
X151200470Y-70140000D03*
X151200470Y-67600000D03*
X125800470Y-67600000D03*
X125800470Y-70140000D03*
X125800470Y-72680000D03*
X125800470Y-75220000D03*
X125800470Y-77760000D03*
X125800470Y-80300000D03*
X125800470Y-82840000D03*
X125800470Y-85380000D03*
X125800470Y-87920000D03*
X125800470Y-90460000D03*
X125800470Y-93000000D03*
X125800470Y-95540000D03*
X125800470Y-98080000D03*
X125800470Y-100620000D03*
X125800470Y-103160000D03*
%TD*%
D10*
%TO.C,F2*%
X116198070Y-126333400D03*
X116198070Y-123031400D03*
X102736070Y-126333400D03*
X102736070Y-123031400D03*
%TD*%
%TO.C,F6*%
X116198070Y-115299002D03*
X116198070Y-111997002D03*
X102736070Y-115299002D03*
X102736070Y-111997002D03*
%TD*%
D20*
%TO.C,J15*%
X94575000Y-102000000D03*
D21*
X94575000Y-107000000D03*
%TD*%
D27*
%TO.C,U2*%
X131800000Y-41180000D03*
D28*
X131800000Y-43720000D03*
X131800000Y-46260000D03*
X131800000Y-48800000D03*
X131800000Y-51340000D03*
X131800000Y-53880000D03*
X131800000Y-56420000D03*
X131800000Y-58960000D03*
%TD*%
D16*
%TO.C,H3*%
X93200000Y-154800000D03*
%TD*%
D14*
%TO.C,J6*%
X94200000Y-61400000D03*
D15*
X94200000Y-63400000D03*
X94200000Y-65400000D03*
X94200000Y-67400000D03*
X94200000Y-69400000D03*
%TD*%
D20*
%TO.C,J13*%
X94562970Y-112697002D03*
D21*
X94562970Y-117697002D03*
%TD*%
D10*
%TO.C,F9*%
X159750500Y-104331800D03*
X159750500Y-107633800D03*
X173212500Y-104331800D03*
X173212500Y-107633800D03*
%TD*%
D24*
%TO.C,J5*%
X181200470Y-128498300D03*
D21*
X181200470Y-123498300D03*
%TD*%
D17*
%TO.C,J10*%
X181600000Y-80400000D03*
D15*
X181600000Y-78400000D03*
X181600000Y-76400000D03*
X181600000Y-74400000D03*
%TD*%
D20*
%TO.C,J3*%
X94562970Y-134198300D03*
D21*
X94562970Y-139198300D03*
%TD*%
D17*
%TO.C,J12*%
X181600470Y-50200000D03*
D15*
X181600470Y-48200000D03*
%TD*%
D24*
%TO.C,J16*%
X181250000Y-107000000D03*
D21*
X181250000Y-102000000D03*
%TD*%
D16*
%TO.C,H4*%
X182600000Y-154800000D03*
%TD*%
%TO.C,H1*%
X93200000Y-41600000D03*
%TD*%
M02*
