M48
; DRILL file KiCad 10.0.0 date 2026-08-22T17:48:25
; FORMAT={-:-/ absolute / metric / decimal}
; #@! TF.CreationDate,2026-08-22T17:48:25-05:00
; #@! TF.GenerationSoftware,Kicad,Pcbnew,10.0.0
; #@! TF.FileFunction,Plated,1,4,PTH
FMAT,2
METRIC
; #@! TA.AperFunction,Plated,PTH,ViaDrill
T1C0.300
; #@! TA.AperFunction,Plated,PTH,ComponentDrill
T2C0.750
; #@! TA.AperFunction,Plated,PTH,ComponentDrill
T3C0.800
; #@! TA.AperFunction,Plated,PTH,ComponentDrill
T4C1.000
; #@! TA.AperFunction,Plated,PTH,ComponentDrill
T5C1.020
; #@! TA.AperFunction,Plated,PTH,ComponentDrill
T6C1.300
; #@! TA.AperFunction,Plated,PTH,ComponentDrill
T7C1.600
; #@! TA.AperFunction,Plated,PTH,ComponentDrill
T8C1.727
; #@! TA.AperFunction,Plated,PTH,ComponentDrill
T9C1.800
; #@! TA.AperFunction,Plated,PTH,ComponentDrill
T10C3.000
; #@! TA.AperFunction,Plated,PTH,ComponentDrill
T11C3.200
%
G90
G05
T1
X99.4Y-79.8
X99.8Y-90.6
X100.6Y-68.4
X101.2Y-64.8
X103.2Y-62.6
X106.4Y-96.8
X108.8Y-76.8
X109.0Y-72.8
X109.2Y-68.6
X111.2Y-91.6
X119.05Y-118.15
X119.6Y-67.4
X119.95Y-119.05
X120.5Y-121.5
X120.6Y-125.0
X121.0Y-119.612
X121.2Y-91.8
X121.4Y-84.0
X121.4Y-86.6
X121.4Y-96.8
X121.6Y-81.0
X125.4Y-123.2
X125.6Y-126.6
X127.4Y-101.8
X127.6Y-99.5
X128.1Y-100.7
X128.225Y-129.679
X128.538Y-131.662
X128.8Y-123.0
X129.6Y-132.237
X130.8Y-132.237
X134.025Y-125.1
X134.025Y-126.35
X134.05Y-130.3
X134.05Y-131.55
X135.0Y-47.5
X135.5Y-125.1
X135.525Y-131.55
X136.975Y-125.1
X137.0Y-131.55
X138.45Y-125.1
X138.475Y-131.55
X139.4Y-45.2
X139.4Y-49.8
X139.925Y-125.1
X139.925Y-126.35
X139.95Y-130.3
X139.95Y-131.55
X142.1Y-130.9
X142.1Y-132.9
X142.1Y-134.9
X142.1Y-136.9
X142.1Y-138.9
X143.5Y-129.4
X143.5Y-140.9
X145.2Y-47.5
X146.0Y-129.4
X146.0Y-140.9
X148.5Y-129.4
X148.5Y-140.9
X148.9Y-100.5
X149.45Y-152.6
X149.45Y-157.0
X149.5Y-99.4
X149.6Y-101.6
X150.25Y-152.6
X150.25Y-157.0
X150.6Y-45.2
X150.6Y-49.8
X151.0Y-129.4
X151.0Y-140.9
X151.05Y-152.6
X151.05Y-157.0
X151.85Y-152.6
X151.85Y-157.0
X152.85Y-153.2
X152.85Y-154.0
X152.85Y-155.0
X152.85Y-156.0
X153.4Y-76.4
X153.5Y-129.4
X153.5Y-140.9
X153.6Y-68.8
X153.8Y-71.4
X154.4Y-78.6
X155.2Y-130.4
X155.2Y-132.5
X155.2Y-134.6
X155.2Y-136.7
X155.2Y-138.8
X155.5Y-47.6
X156.0Y-73.8
X156.8Y-81.2
X157.8Y-84.0
X157.8Y-91.8
X157.8Y-96.8
X157.8Y-75.2
X158.0Y-86.6
X160.4Y-62.4
X161.4Y-45.2
X161.4Y-49.8
X162.0Y-64.4
X162.2Y-67.6
X164.0Y-69.0
X165.6Y-47.6
X166.6Y-71.6
X167.4Y-75.0
X167.6Y-78.8
X168.0Y-54.8
X168.2Y-96.4
X168.2Y-61.6
X169.2Y-85.6
X169.4Y-57.0
X169.8Y-45.2
X170.0Y-63.0
X170.6Y-49.8
X175.4Y-54.4
X176.8Y-66.4
X177.0Y-64.4
X177.0Y-69.4
X177.2Y-55.8
X177.4Y-77.4
X177.8Y-86.8
X179.2Y-45.2
T2
X94.2Y-74.35
X94.2Y-76.35
X94.2Y-78.35
X94.2Y-80.35
X94.2Y-85.35
X94.2Y-87.35
X94.2Y-89.35
X94.2Y-91.35
X94.2Y-61.4
X94.2Y-63.4
X94.2Y-65.4
X94.2Y-67.4
X94.2Y-69.4
X181.6Y-61.4
X181.6Y-63.4
X181.6Y-65.4
X181.6Y-67.4
X181.6Y-69.4
X181.6Y-74.4
X181.6Y-76.4
X181.6Y-78.4
X181.6Y-80.4
X181.6Y-48.2
X181.6Y-50.2
X181.65Y-85.4
X181.65Y-87.4
X181.65Y-89.4
X181.65Y-91.4
T3
X136.9Y-117.953
X136.9Y-121.453
T4
X131.8Y-41.18
X131.8Y-43.72
X131.8Y-46.26
X131.8Y-48.8
X131.8Y-51.34
X131.8Y-53.88
X131.8Y-56.42
X131.8Y-58.96
T5
X125.8Y-67.6
X125.8Y-70.14
X125.8Y-72.68
X125.8Y-75.22
X125.8Y-77.76
X125.8Y-80.3
X125.8Y-82.84
X125.8Y-85.38
X125.8Y-87.92
X125.8Y-90.46
X125.8Y-93.0
X125.8Y-95.54
X125.8Y-98.08
X125.8Y-100.62
X125.8Y-103.16
X151.2Y-67.6
X151.2Y-70.14
X151.2Y-72.68
X151.2Y-75.22
X151.2Y-77.76
X151.2Y-80.3
X151.2Y-82.84
X151.2Y-85.38
X151.2Y-87.92
X151.2Y-90.46
X151.2Y-93.0
X151.2Y-95.54
X151.2Y-98.08
X151.2Y-100.62
X151.2Y-103.16
T6
X94.563Y-112.697
X94.563Y-117.697
X94.563Y-123.5
X94.563Y-128.5
X94.563Y-134.198
X94.563Y-139.198
X94.575Y-102.0
X94.575Y-107.0
X181.2Y-112.697
X181.2Y-117.697
X181.2Y-123.498
X181.2Y-128.498
X181.2Y-134.198
X181.2Y-139.198
X181.25Y-102.0
X181.25Y-107.0
T7
X109.87Y-155.94
X112.69Y-155.94
X115.51Y-155.94
T8
X102.736Y-111.997
X102.736Y-115.299
X102.736Y-123.031
X102.736Y-126.333
X102.736Y-133.631
X102.736Y-136.933
X102.748Y-101.3
X102.748Y-104.602
X116.198Y-111.997
X116.198Y-115.299
X116.198Y-123.031
X116.198Y-126.333
X116.198Y-133.631
X116.198Y-136.933
X116.21Y-101.3
X116.21Y-104.602
X135.315Y-128.019
X135.315Y-141.481
X138.617Y-128.019
X138.617Y-141.481
X159.738Y-114.962
X159.738Y-118.264
X159.738Y-125.863
X159.738Y-129.165
X159.738Y-136.498
X159.738Y-139.8
X159.75Y-104.332
X159.75Y-107.634
X173.2Y-114.962
X173.2Y-118.264
X173.2Y-125.863
X173.2Y-129.165
X173.2Y-136.498
X173.2Y-139.8
X173.213Y-104.332
X173.213Y-107.634
T9
X133.6Y-154.4
X138.6Y-154.4
T10
X93.2Y-41.6
X93.2Y-154.8
X182.6Y-41.6
X182.6Y-154.8
T11
X98.7Y-150.3
X126.9Y-150.275
M30
