%TF.GenerationSoftware,KiCad,Pcbnew,10.0.0*%
%TF.CreationDate,2026-07-10T00:05:46-05:00*%
%TF.ProjectId,BB-8,42422d38-2e6b-4696-9361-645f70636258,rev?*%
%TF.SameCoordinates,Original*%
%TF.FileFunction,Soldermask,Top*%
%TF.FilePolarity,Negative*%
%FSLAX46Y46*%
G04 Gerber Fmt 4.6, Leading zero omitted, Abs format (unit mm)*
G04 Created by KiCad (PCBNEW 10.0.0) date 2026-07-10 00:05:46*
%MOMM*%
%LPD*%
G01*
G04 APERTURE LIST*
G04 Aperture macros list*
%AMRoundRect*
0 Rectangle with rounded corners*
0 $1 Rounding radius*
0 $2 $3 $4 $5 $6 $7 $8 $9 X,Y pos of 4 corners*
0 Add a 4 corners polygon primitive as box body*
4,1,4,$2,$3,$4,$5,$6,$7,$8,$9,$2,$3,0*
0 Add four circle primitives for the rounded corners*
1,1,$1+$1,$2,$3*
1,1,$1+$1,$4,$5*
1,1,$1+$1,$6,$7*
1,1,$1+$1,$8,$9*
0 Add four rect primitives between the rounded corners*
20,1,$1+$1,$2,$3,$4,$5,0*
20,1,$1+$1,$4,$5,$6,$7,0*
20,1,$1+$1,$6,$7,$8,$9,0*
20,1,$1+$1,$8,$9,$2,$3,0*%
G04 Aperture macros list end*
%ADD10C,2.235200*%
%ADD11C,3.200000*%
%ADD12RoundRect,0.237500X0.237500X-0.300000X0.237500X0.300000X-0.237500X0.300000X-0.237500X-0.300000X0*%
%ADD13RoundRect,0.237500X-0.287500X-0.237500X0.287500X-0.237500X0.287500X0.237500X-0.287500X0.237500X0*%
%ADD14RoundRect,0.250000X0.625000X-0.350000X0.625000X0.350000X-0.625000X0.350000X-0.625000X-0.350000X0*%
%ADD15O,1.750000X1.200000*%
%ADD16RoundRect,0.150000X-0.512500X-0.150000X0.512500X-0.150000X0.512500X0.150000X-0.512500X0.150000X0*%
%ADD17RoundRect,0.237500X0.300000X0.237500X-0.300000X0.237500X-0.300000X-0.237500X0.300000X-0.237500X0*%
%ADD18RoundRect,0.250000X-0.550000X0.550000X-0.550000X-0.550000X0.550000X-0.550000X0.550000X0.550000X0*%
%ADD19C,1.600000*%
%ADD20RoundRect,0.102000X-0.975000X0.975000X-0.975000X-0.975000X0.975000X-0.975000X0.975000X0.975000X0*%
%ADD21C,2.154000*%
%ADD22RoundRect,0.102000X-0.975000X-0.975000X0.975000X-0.975000X0.975000X0.975000X-0.975000X0.975000X0*%
%ADD23RoundRect,0.102000X0.975000X-0.975000X0.975000X0.975000X-0.975000X0.975000X-0.975000X-0.975000X0*%
%ADD24RoundRect,0.237500X-0.250000X-0.237500X0.250000X-0.237500X0.250000X0.237500X-0.250000X0.237500X0*%
%ADD25RoundRect,0.237500X0.250000X0.237500X-0.250000X0.237500X-0.250000X-0.237500X0.250000X-0.237500X0*%
%ADD26RoundRect,0.250001X1.074999X-0.462499X1.074999X0.462499X-1.074999X0.462499X-1.074999X-0.462499X0*%
%ADD27RoundRect,0.250000X-0.625000X0.350000X-0.625000X-0.350000X0.625000X-0.350000X0.625000X0.350000X0*%
%ADD28C,3.000000*%
%ADD29RoundRect,0.102000X1.000000X1.000000X-1.000000X1.000000X-1.000000X-1.000000X1.000000X-1.000000X0*%
%ADD30C,2.204000*%
%ADD31R,1.700000X1.700000*%
%ADD32C,1.700000*%
%ADD33RoundRect,0.237500X-0.300000X-0.237500X0.300000X-0.237500X0.300000X0.237500X-0.300000X0.237500X0*%
%ADD34RoundRect,0.237500X0.287500X0.237500X-0.287500X0.237500X-0.287500X-0.237500X0.287500X-0.237500X0*%
%ADD35RoundRect,0.237500X0.237500X-0.287500X0.237500X0.287500X-0.237500X0.287500X-0.237500X-0.287500X0*%
%ADD36RoundRect,0.250000X0.300000X-2.050000X0.300000X2.050000X-0.300000X2.050000X-0.300000X-2.050000X0*%
%ADD37RoundRect,0.250002X5.149998X-4.449998X5.149998X4.449998X-5.149998X4.449998X-5.149998X-4.449998X0*%
%ADD38RoundRect,0.237500X0.237500X-0.250000X0.237500X0.250000X-0.237500X0.250000X-0.237500X-0.250000X0*%
%ADD39RoundRect,0.250000X1.000000X0.650000X-1.000000X0.650000X-1.000000X-0.650000X1.000000X-0.650000X0*%
G04 APERTURE END LIST*
D10*
%TO.C,F7*%
X159800470Y-108364900D03*
X159800470Y-111666900D03*
X173262470Y-108364900D03*
X173262470Y-111666900D03*
%TD*%
D11*
%TO.C,H2*%
X93000000Y-144800000D03*
%TD*%
%TO.C,H3*%
X182800000Y-41400000D03*
%TD*%
D12*
%TO.C,C7*%
X122800470Y-103062500D03*
X122800470Y-101337500D03*
%TD*%
D13*
%TO.C,D7*%
X170325470Y-130600000D03*
X172075470Y-130600000D03*
%TD*%
D14*
%TO.C,J7*%
X181600470Y-77400000D03*
D15*
X181600470Y-75400000D03*
X181600470Y-73400000D03*
X181600470Y-71400000D03*
X181600470Y-69400000D03*
%TD*%
D16*
%TO.C,U1*%
X126862970Y-125002651D03*
X126862970Y-125952651D03*
X126862970Y-126902651D03*
X129137970Y-126902651D03*
X129137970Y-125952651D03*
X129137970Y-125002651D03*
%TD*%
D17*
%TO.C,C11*%
X120862500Y-51200000D03*
X119137500Y-51200000D03*
%TD*%
D18*
%TO.C,C2*%
X126000470Y-134500000D03*
D19*
X126000470Y-138000000D03*
%TD*%
D14*
%TO.C,J9*%
X181600470Y-62000000D03*
D15*
X181600470Y-60000000D03*
X181600470Y-58000000D03*
%TD*%
D20*
%TO.C,J2*%
X94562970Y-120700000D03*
D21*
X94562970Y-125700000D03*
%TD*%
D10*
%TO.C,F1*%
X135365370Y-134197600D03*
X138667370Y-134197600D03*
X135365370Y-120735600D03*
X138667370Y-120735600D03*
%TD*%
D22*
%TO.C,J1*%
X136272970Y-143797500D03*
D21*
X141272970Y-143797500D03*
%TD*%
D23*
%TO.C,J4*%
X181200470Y-136464900D03*
D21*
X181200470Y-131464900D03*
%TD*%
D24*
%TO.C,R2*%
X125887970Y-116200000D03*
X127712970Y-116200000D03*
%TD*%
D12*
%TO.C,C8*%
X121000470Y-103062500D03*
X121000470Y-101337500D03*
%TD*%
D10*
%TO.C,F8*%
X116198070Y-94600000D03*
X116198070Y-91298000D03*
X102736070Y-94600000D03*
X102736070Y-91298000D03*
%TD*%
D25*
%TO.C,R10*%
X109912970Y-112400000D03*
X108087970Y-112400000D03*
%TD*%
D13*
%TO.C,D9*%
X170325470Y-104800000D03*
X172075470Y-104800000D03*
%TD*%
D25*
%TO.C,R12*%
X109912970Y-98200000D03*
X108087970Y-98200000D03*
%TD*%
D17*
%TO.C,C9*%
X122662970Y-69245000D03*
X120937970Y-69245000D03*
%TD*%
D25*
%TO.C,R6*%
X109912970Y-126800000D03*
X108087970Y-126800000D03*
%TD*%
D10*
%TO.C,F5*%
X159738000Y-123129800D03*
X159738000Y-126431800D03*
X173200000Y-123129800D03*
X173200000Y-126431800D03*
%TD*%
D24*
%TO.C,R1*%
X145687970Y-120200000D03*
X147512970Y-120200000D03*
%TD*%
D26*
%TO.C,L1*%
X123000470Y-122000000D03*
X123000470Y-119025000D03*
%TD*%
D10*
%TO.C,F3*%
X116198070Y-134200000D03*
X116198070Y-130898000D03*
X102736070Y-134200000D03*
X102736070Y-130898000D03*
%TD*%
D27*
%TO.C,J8*%
X94200470Y-58000000D03*
D15*
X94200470Y-60000000D03*
X94200470Y-62000000D03*
%TD*%
D13*
%TO.C,D6*%
X170325470Y-119400000D03*
X172075470Y-119400000D03*
%TD*%
D23*
%TO.C,J12*%
X181200470Y-111100000D03*
D21*
X181200470Y-106100000D03*
%TD*%
D10*
%TO.C,F4*%
X159738470Y-133764900D03*
X159738470Y-137066900D03*
X173200470Y-133764900D03*
X173200470Y-137066900D03*
%TD*%
D28*
%TO.C,U3*%
X150780470Y-111120000D03*
X150780470Y-64170000D03*
X126270470Y-111120000D03*
X126270470Y-64170000D03*
D29*
X151200470Y-103160000D03*
D30*
X151200470Y-100620000D03*
X151200470Y-98080000D03*
X151200470Y-95540000D03*
X151200470Y-93000000D03*
X151200470Y-90460000D03*
X151200470Y-87920000D03*
X151200470Y-85380000D03*
X151200470Y-82840000D03*
X151200470Y-80300000D03*
X151200470Y-77760000D03*
X151200470Y-75220000D03*
X151200470Y-72680000D03*
X151200470Y-70140000D03*
X151200470Y-67600000D03*
X125800470Y-67600000D03*
X125800470Y-70140000D03*
X125800470Y-72680000D03*
X125800470Y-75220000D03*
X125800470Y-77760000D03*
X125800470Y-80300000D03*
X125800470Y-82840000D03*
X125800470Y-85380000D03*
X125800470Y-87920000D03*
X125800470Y-90460000D03*
X125800470Y-93000000D03*
X125800470Y-95540000D03*
X125800470Y-98080000D03*
X125800470Y-100620000D03*
X125800470Y-103160000D03*
%TD*%
D10*
%TO.C,F2*%
X116198070Y-123600000D03*
X116198070Y-120298000D03*
X102736070Y-123600000D03*
X102736070Y-120298000D03*
%TD*%
%TO.C,F6*%
X116198070Y-108702000D03*
X116198070Y-105400000D03*
X102736070Y-108702000D03*
X102736070Y-105400000D03*
%TD*%
D20*
%TO.C,J13*%
X94562970Y-91998000D03*
D21*
X94562970Y-96998000D03*
%TD*%
D31*
%TO.C,U2*%
X131800000Y-41180000D03*
D32*
X131800000Y-43720000D03*
X131800000Y-46260000D03*
X131800000Y-48800000D03*
X131800000Y-51340000D03*
X131800000Y-53880000D03*
X131800000Y-56420000D03*
X131800000Y-58960000D03*
%TD*%
D17*
%TO.C,C1*%
X128800470Y-121600000D03*
X127075470Y-121600000D03*
%TD*%
D33*
%TO.C,C5*%
X122137970Y-114712500D03*
X123862970Y-114712500D03*
%TD*%
D11*
%TO.C,H4*%
X182800000Y-145000000D03*
%TD*%
D13*
%TO.C,D11*%
X170325470Y-90800000D03*
X172075470Y-90800000D03*
%TD*%
D34*
%TO.C,D5*%
X105800470Y-126800000D03*
X104050470Y-126800000D03*
%TD*%
D24*
%TO.C,R8*%
X166087970Y-119400000D03*
X167912970Y-119400000D03*
%TD*%
D34*
%TO.C,D10*%
X105800470Y-98200000D03*
X104050470Y-98200000D03*
%TD*%
D27*
%TO.C,J6*%
X94200470Y-69400000D03*
D15*
X94200470Y-71400000D03*
X94200470Y-73400000D03*
X94200470Y-75400000D03*
X94200470Y-77400000D03*
%TD*%
D35*
%TO.C,D1*%
X131800000Y-133475000D03*
X131800000Y-131725000D03*
%TD*%
D20*
%TO.C,J11*%
X94562970Y-106100000D03*
D21*
X94562970Y-111100000D03*
%TD*%
D17*
%TO.C,C6*%
X123862970Y-116712500D03*
X122137970Y-116712500D03*
%TD*%
%TO.C,C10*%
X120862500Y-49400000D03*
X119137500Y-49400000D03*
%TD*%
D24*
%TO.C,R4*%
X129687970Y-116200000D03*
X131512970Y-116200000D03*
%TD*%
D33*
%TO.C,C4*%
X127075470Y-119200000D03*
X128800470Y-119200000D03*
%TD*%
D10*
%TO.C,F9*%
X159738470Y-94329800D03*
X159738470Y-97631800D03*
X173200470Y-94329800D03*
X173200470Y-97631800D03*
%TD*%
D23*
%TO.C,J5*%
X181200470Y-125764900D03*
D21*
X181200470Y-120764900D03*
%TD*%
D36*
%TO.C,Q1*%
X147260470Y-139575000D03*
D37*
X149800470Y-130425000D03*
D36*
X152340470Y-139575000D03*
%TD*%
D20*
%TO.C,J3*%
X94562970Y-131464900D03*
D21*
X94562970Y-136464900D03*
%TD*%
D38*
%TO.C,R3*%
X131800000Y-137112500D03*
X131800000Y-135287500D03*
%TD*%
D14*
%TO.C,J10*%
X181600470Y-50200000D03*
D15*
X181600470Y-48200000D03*
%TD*%
D23*
%TO.C,J14*%
X181237970Y-96998000D03*
D21*
X181237970Y-91998000D03*
%TD*%
D24*
%TO.C,R9*%
X166087970Y-130600000D03*
X167912970Y-130600000D03*
%TD*%
D34*
%TO.C,D4*%
X105800470Y-137800000D03*
X104050470Y-137800000D03*
%TD*%
D24*
%TO.C,R7*%
X120887970Y-67445000D03*
X122712970Y-67445000D03*
%TD*%
D12*
%TO.C,C3*%
X131600470Y-125662500D03*
X131600470Y-123937500D03*
%TD*%
D39*
%TO.C,D3*%
X149600470Y-123200000D03*
X145600470Y-123200000D03*
%TD*%
D11*
%TO.C,H1*%
X93000000Y-42000000D03*
%TD*%
D24*
%TO.C,R11*%
X166087970Y-104800000D03*
X167912970Y-104800000D03*
%TD*%
D39*
%TO.C,D2*%
X144400000Y-115200000D03*
X140400000Y-115200000D03*
%TD*%
D24*
%TO.C,R13*%
X166087970Y-90800000D03*
X167912970Y-90800000D03*
%TD*%
D25*
%TO.C,R5*%
X109912970Y-137800000D03*
X108087970Y-137800000D03*
%TD*%
D34*
%TO.C,D8*%
X105800470Y-112400000D03*
X104050470Y-112400000D03*
%TD*%
M02*
