M48
; DRILL file KiCad 10.0.0 date 2026-08-23T23:32:50
; FORMAT={-:-/ absolute / metric / decimal}
; #@! TF.CreationDate,2026-08-23T23:32:50-05:00
; #@! TF.GenerationSoftware,Kicad,Pcbnew,10.0.0
; #@! TF.FileFunction,Plated,1,4,PTH
FMAT,2
METRIC
; #@! TA.AperFunction,Plated,PTH,ViaDrill
T1C0.300
; #@! TA.AperFunction,Plated,PTH,ComponentDrill
T2C0.750
; #@! TA.AperFunction,Plated,PTH,ComponentDrill
T3C0.800
; #@! TA.AperFunction,Plated,PTH,ComponentDrill
T4C1.000
; #@! TA.AperFunction,Plated,PTH,ComponentDrill
T5C1.020
; #@! TA.AperFunction,Plated,PTH,ComponentDrill
T6C1.300
; #@! TA.AperFunction,Plated,PTH,ComponentDrill
T7C1.727
; #@! TA.AperFunction,Plated,PTH,ComponentDrill
T8C1.800
; #@! TA.AperFunction,Plated,PTH,ComponentDrill
T9C3.000
; #@! TA.AperFunction,Plated,PTH,ComponentDrill
T10C3.200
%
G90
G05
T1
X92.5Y-127.2
X92.5Y-128.267
X92.5Y-129.333
X92.5Y-130.4
X92.5Y-137.9
X92.5Y-138.967
X92.5Y-140.033
X92.5Y-141.1
X92.55Y-105.75
X92.55Y-106.817
X92.55Y-107.883
X92.55Y-108.95
X92.55Y-116.4
X92.55Y-117.467
X92.55Y-118.533
X92.55Y-119.6
X93.525Y-130.4
X93.525Y-141.1
X93.575Y-108.95
X93.575Y-119.6
X94.55Y-130.4
X94.55Y-141.1
X94.6Y-108.95
X94.6Y-119.6
X95.575Y-130.4
X95.575Y-141.1
X95.625Y-108.95
X95.625Y-119.6
X96.6Y-127.267
X96.6Y-128.333
X96.6Y-129.4
X96.6Y-130.4
X96.6Y-137.967
X96.6Y-139.033
X96.6Y-140.1
X96.6Y-141.1
X96.65Y-105.817
X96.65Y-106.883
X96.65Y-107.95
X96.65Y-108.95
X96.65Y-116.467
X96.65Y-117.533
X96.65Y-118.6
X96.65Y-119.6
X99.0Y-70.4
X99.0Y-83.1
X99.2Y-77.0
X99.4Y-79.8
X99.5Y-93.5
X99.6Y-88.3
X99.8Y-90.6
X100.6Y-68.4
X101.2Y-64.8
X103.2Y-62.6
X103.9Y-60.0
X104.1Y-98.6
X106.4Y-96.8
X107.3Y-78.7
X108.8Y-76.8
X108.9Y-93.8
X109.0Y-72.8
X109.2Y-68.6
X110.9Y-66.5
X111.2Y-91.6
X112.6Y-89.1
X114.1Y-110.467
X114.1Y-111.467
X114.1Y-112.533
X114.1Y-113.6
X114.1Y-114.667
X114.1Y-115.733
X114.1Y-116.8
X114.15Y-121.483
X114.15Y-122.483
X114.15Y-123.55
X114.15Y-124.617
X114.15Y-125.683
X114.15Y-126.75
X114.15Y-127.817
X114.15Y-132.167
X114.15Y-133.167
X114.15Y-134.233
X114.15Y-135.3
X114.15Y-136.367
X114.15Y-137.433
X114.15Y-138.5
X115.125Y-110.467
X115.125Y-116.8
X115.175Y-121.483
X115.175Y-127.817
X115.175Y-132.167
X115.175Y-138.5
X116.15Y-110.467
X116.15Y-116.8
X116.2Y-121.483
X116.2Y-127.817
X116.2Y-132.167
X116.2Y-138.5
X117.175Y-110.467
X117.175Y-116.8
X117.225Y-121.483
X117.225Y-127.817
X117.225Y-132.167
X117.225Y-138.5
X118.2Y-110.467
X118.2Y-111.533
X118.2Y-112.6
X118.2Y-113.667
X118.2Y-114.733
X118.2Y-115.8
X118.2Y-116.8
X118.25Y-121.483
X118.25Y-122.55
X118.25Y-123.617
X118.25Y-124.683
X118.25Y-125.75
X118.25Y-126.817
X118.25Y-127.817
X118.25Y-132.167
X118.25Y-133.233
X118.25Y-134.3
X118.25Y-135.367
X118.25Y-136.433
X118.25Y-137.5
X118.25Y-138.5
X119.2Y-67.45
X120.5Y-121.5
X120.6Y-125.0
X121.2Y-91.8
X121.2Y-94.2
X121.3Y-89.2
X121.4Y-84.0
X121.4Y-86.6
X121.4Y-96.8
X121.6Y-81.0
X121.8Y-99.3
X121.8Y-120.6
X122.4Y-77.9
X123.05Y-120.55
X124.3Y-120.55
X125.35Y-119.5
X125.35Y-120.6
X125.35Y-121.65
X125.35Y-122.7
X125.6Y-126.6
X126.95Y-120.85
X127.4Y-101.8
X127.6Y-99.5
X128.1Y-100.7
X128.225Y-129.679
X128.8Y-123.0
X131.0Y-129.75
X131.4Y-130.4
X131.75Y-131.2
X133.8Y-125.1
X133.8Y-126.725
X133.8Y-128.35
X133.8Y-129.975
X133.8Y-131.6
X135.3Y-125.1
X135.4Y-131.55
X136.9Y-125.1
X137.0Y-131.55
X138.5Y-125.1
X138.6Y-131.55
X139.4Y-47.5
X139.4Y-45.2
X139.4Y-49.8
X140.2Y-125.15
X140.2Y-126.775
X140.2Y-128.4
X140.2Y-130.025
X140.2Y-131.6
X142.1Y-130.9
X142.1Y-132.9
X142.1Y-134.9
X142.1Y-136.9
X142.1Y-138.9
X143.5Y-129.4
X143.5Y-140.9
X144.25Y-119.337
X145.05Y-119.337
X145.75Y-119.337
X146.0Y-129.4
X146.0Y-140.9
X148.5Y-129.4
X148.5Y-140.9
X148.9Y-100.5
X149.45Y-152.6
X149.45Y-157.0
X149.5Y-99.4
X149.6Y-101.6
X150.25Y-152.6
X150.25Y-157.0
X150.6Y-45.2
X150.6Y-47.6
X150.6Y-49.8
X151.0Y-129.4
X151.0Y-140.9
X151.05Y-152.6
X151.05Y-157.0
X151.85Y-152.6
X151.85Y-157.0
X152.85Y-153.2
X152.85Y-154.0
X152.85Y-155.0
X152.85Y-156.0
X153.4Y-76.4
X153.5Y-129.4
X153.5Y-140.9
X153.6Y-68.8
X153.8Y-71.4
X154.4Y-78.6
X155.2Y-130.4
X155.2Y-132.5
X155.2Y-134.6
X155.2Y-136.7
X155.2Y-138.8
X156.0Y-73.8
X156.8Y-81.2
X157.6Y-89.3
X157.675Y-124.35
X157.675Y-125.35
X157.675Y-126.417
X157.675Y-127.483
X157.675Y-128.55
X157.675Y-129.617
X157.675Y-130.683
X157.7Y-94.5
X157.7Y-113.467
X157.7Y-114.467
X157.7Y-115.533
X157.7Y-116.6
X157.7Y-117.667
X157.7Y-118.733
X157.7Y-119.8
X157.7Y-134.967
X157.7Y-135.967
X157.7Y-137.033
X157.7Y-138.1
X157.7Y-139.167
X157.7Y-140.233
X157.7Y-141.3
X157.8Y-84.0
X157.8Y-91.8
X157.8Y-96.8
X157.8Y-75.2
X157.9Y-99.3
X158.0Y-86.6
X158.7Y-124.35
X158.7Y-130.683
X158.725Y-113.467
X158.725Y-119.8
X158.725Y-134.967
X158.725Y-141.3
X159.725Y-124.35
X159.725Y-130.683
X159.75Y-113.467
X159.75Y-119.8
X159.75Y-134.967
X159.75Y-141.3
X160.4Y-62.4
X160.75Y-124.35
X160.75Y-130.683
X160.775Y-113.467
X160.775Y-119.8
X160.775Y-134.967
X160.775Y-141.3
X161.4Y-47.5
X161.4Y-45.2
X161.4Y-49.8
X161.775Y-124.35
X161.775Y-125.417
X161.775Y-126.483
X161.775Y-127.55
X161.775Y-128.617
X161.775Y-129.683
X161.775Y-130.683
X161.8Y-113.467
X161.8Y-114.533
X161.8Y-115.6
X161.8Y-116.667
X161.8Y-117.733
X161.8Y-118.8
X161.8Y-119.8
X161.8Y-134.967
X161.8Y-136.033
X161.8Y-137.1
X161.8Y-138.167
X161.8Y-139.233
X161.8Y-140.3
X161.8Y-141.3
X162.0Y-64.4
X162.2Y-67.6
X164.0Y-69.0
X166.3Y-94.2
X166.6Y-71.6
X167.4Y-75.0
X167.6Y-78.8
X167.9Y-83.5
X168.0Y-54.8
X168.2Y-96.4
X168.2Y-61.6
X168.9Y-80.6
X169.2Y-85.6
X169.4Y-57.0
X169.9Y-45.1
X169.9Y-47.6
X169.9Y-49.7
X170.0Y-63.0
X170.5Y-98.5
X175.4Y-54.4
X175.9Y-75.4
X176.8Y-66.4
X177.0Y-64.4
X177.0Y-69.4
X177.1Y-51.1
X177.2Y-49.1
X177.2Y-55.8
X177.3Y-46.5
X177.4Y-77.4
X177.8Y-84.3
X177.8Y-86.8
X178.5Y-90.4
X178.6Y-71.1
X179.15Y-110.75
X179.15Y-111.75
X179.15Y-112.817
X179.15Y-113.883
X179.15Y-121.65
X179.15Y-122.65
X179.15Y-123.717
X179.15Y-124.783
X179.2Y-100.0
X179.2Y-101.0
X179.2Y-102.067
X179.2Y-103.133
X179.2Y-132.35
X179.2Y-133.35
X179.2Y-134.417
X179.2Y-135.483
X180.175Y-110.75
X180.175Y-121.65
X180.225Y-100.0
X180.225Y-132.35
X181.2Y-110.75
X181.2Y-121.65
X181.25Y-100.0
X181.25Y-132.35
X182.225Y-110.75
X182.225Y-121.65
X182.275Y-100.0
X182.275Y-132.35
X183.25Y-110.75
X183.25Y-111.817
X183.25Y-112.883
X183.25Y-113.95
X183.25Y-121.65
X183.25Y-122.717
X183.25Y-123.783
X183.25Y-124.85
X183.3Y-100.0
X183.3Y-101.067
X183.3Y-102.133
X183.3Y-103.2
X183.3Y-132.35
X183.3Y-133.417
X183.3Y-134.483
X183.3Y-135.55
T2
X94.2Y-74.35
X94.2Y-76.35
X94.2Y-78.35
X94.2Y-80.35
X94.2Y-85.35
X94.2Y-87.35
X94.2Y-89.35
X94.2Y-91.35
X94.2Y-61.4
X94.2Y-63.4
X94.2Y-65.4
X94.2Y-67.4
X94.2Y-69.4
X181.6Y-61.4
X181.6Y-63.4
X181.6Y-65.4
X181.6Y-67.4
X181.6Y-69.4
X181.6Y-74.4
X181.6Y-76.4
X181.6Y-78.4
X181.6Y-80.4
X181.6Y-48.2
X181.6Y-50.2
X181.65Y-85.4
X181.65Y-87.4
X181.65Y-89.4
X181.65Y-91.4
T3
X136.9Y-117.953
X136.9Y-121.453
T4
X131.8Y-41.18
X131.8Y-43.72
X131.8Y-46.26
X131.8Y-48.8
X131.8Y-51.34
X131.8Y-53.88
X131.8Y-56.42
X131.8Y-58.96
T5
X125.8Y-67.6
X125.8Y-70.14
X125.8Y-72.68
X125.8Y-75.22
X125.8Y-77.76
X125.8Y-80.3
X125.8Y-82.84
X125.8Y-85.38
X125.8Y-87.92
X125.8Y-90.46
X125.8Y-93.0
X125.8Y-95.54
X125.8Y-98.08
X125.8Y-100.62
X125.8Y-103.16
X151.2Y-67.6
X151.2Y-70.14
X151.2Y-72.68
X151.2Y-75.22
X151.2Y-77.76
X151.2Y-80.3
X151.2Y-82.84
X151.2Y-85.38
X151.2Y-87.92
X151.2Y-90.46
X151.2Y-93.0
X151.2Y-95.54
X151.2Y-98.08
X151.2Y-100.62
X151.2Y-103.16
T6
X94.563Y-112.697
X94.563Y-117.697
X94.563Y-123.5
X94.563Y-128.5
X94.563Y-134.198
X94.563Y-139.198
X94.575Y-102.0
X94.575Y-107.0
X181.2Y-112.697
X181.2Y-117.697
X181.2Y-123.498
X181.2Y-128.498
X181.2Y-134.198
X181.2Y-139.198
X181.25Y-102.0
X181.25Y-107.0
T7
X102.736Y-111.997
X102.736Y-115.299
X102.736Y-123.031
X102.736Y-126.333
X102.736Y-133.631
X102.736Y-136.933
X102.748Y-101.3
X102.748Y-104.602
X109.87Y-155.94
X112.69Y-155.94
X115.51Y-155.94
X116.198Y-111.997
X116.198Y-115.299
X116.198Y-123.031
X116.198Y-126.333
X116.198Y-133.631
X116.198Y-136.933
X116.21Y-101.3
X116.21Y-104.602
X135.315Y-128.019
X135.315Y-141.481
X138.617Y-128.019
X138.617Y-141.481
X159.738Y-114.962
X159.738Y-118.264
X159.738Y-125.863
X159.738Y-129.165
X159.738Y-136.498
X159.738Y-139.8
X159.75Y-104.332
X159.75Y-107.634
X173.2Y-114.962
X173.2Y-118.264
X173.2Y-125.863
X173.2Y-129.165
X173.2Y-136.498
X173.2Y-139.8
X173.213Y-104.332
X173.213Y-107.634
T8
X133.6Y-154.4
X138.6Y-154.4
T9
X93.2Y-41.6
X93.2Y-154.8
X182.6Y-41.6
X182.6Y-154.8
T10
X98.7Y-150.3
X126.9Y-150.275
M30
