%TF.GenerationSoftware,KiCad,Pcbnew,10.0.0*%
%TF.CreationDate,2026-07-10T00:05:46-05:00*%
%TF.ProjectId,BB-8,42422d38-2e6b-4696-9361-645f70636258,rev?*%
%TF.SameCoordinates,Original*%
%TF.FileFunction,Soldermask,Bot*%
%TF.FilePolarity,Negative*%
%FSLAX46Y46*%
G04 Gerber Fmt 4.6, Leading zero omitted, Abs format (unit mm)*
G04 Created by KiCad (PCBNEW 10.0.0) date 2026-07-10 00:05:46*
%MOMM*%
%LPD*%
G01*
G04 APERTURE LIST*
G04 Aperture macros list*
%AMRoundRect*
0 Rectangle with rounded corners*
0 $1 Rounding radius*
0 $2 $3 $4 $5 $6 $7 $8 $9 X,Y pos of 4 corners*
0 Add a 4 corners polygon primitive as box body*
4,1,4,$2,$3,$4,$5,$6,$7,$8,$9,$2,$3,0*
0 Add four circle primitives for the rounded corners*
1,1,$1+$1,$2,$3*
1,1,$1+$1,$4,$5*
1,1,$1+$1,$6,$7*
1,1,$1+$1,$8,$9*
0 Add four rect primitives between the rounded corners*
20,1,$1+$1,$2,$3,$4,$5,0*
20,1,$1+$1,$4,$5,$6,$7,0*
20,1,$1+$1,$6,$7,$8,$9,0*
20,1,$1+$1,$8,$9,$2,$3,0*%
G04 Aperture macros list end*
%ADD10C,2.235200*%
%ADD11C,3.200000*%
%ADD12RoundRect,0.250000X0.625000X-0.350000X0.625000X0.350000X-0.625000X0.350000X-0.625000X-0.350000X0*%
%ADD13O,1.750000X1.200000*%
%ADD14RoundRect,0.250000X-0.550000X0.550000X-0.550000X-0.550000X0.550000X-0.550000X0.550000X0.550000X0*%
%ADD15C,1.600000*%
%ADD16RoundRect,0.102000X-0.975000X0.975000X-0.975000X-0.975000X0.975000X-0.975000X0.975000X0.975000X0*%
%ADD17C,2.154000*%
%ADD18RoundRect,0.102000X-0.975000X-0.975000X0.975000X-0.975000X0.975000X0.975000X-0.975000X0.975000X0*%
%ADD19RoundRect,0.102000X0.975000X-0.975000X0.975000X0.975000X-0.975000X0.975000X-0.975000X-0.975000X0*%
%ADD20RoundRect,0.250000X-0.625000X0.350000X-0.625000X-0.350000X0.625000X-0.350000X0.625000X0.350000X0*%
%ADD21C,3.000000*%
%ADD22RoundRect,0.102000X1.000000X1.000000X-1.000000X1.000000X-1.000000X-1.000000X1.000000X-1.000000X0*%
%ADD23C,2.204000*%
%ADD24R,1.700000X1.700000*%
%ADD25C,1.700000*%
G04 APERTURE END LIST*
D10*
%TO.C,F7*%
X159800470Y-108364900D03*
X159800470Y-111666900D03*
X173262470Y-108364900D03*
X173262470Y-111666900D03*
%TD*%
D11*
%TO.C,H2*%
X93000000Y-144800000D03*
%TD*%
%TO.C,H3*%
X182800000Y-41400000D03*
%TD*%
D12*
%TO.C,J7*%
X181600470Y-77400000D03*
D13*
X181600470Y-75400000D03*
X181600470Y-73400000D03*
X181600470Y-71400000D03*
X181600470Y-69400000D03*
%TD*%
D14*
%TO.C,C2*%
X126000470Y-134500000D03*
D15*
X126000470Y-138000000D03*
%TD*%
D12*
%TO.C,J9*%
X181600470Y-62000000D03*
D13*
X181600470Y-60000000D03*
X181600470Y-58000000D03*
%TD*%
D16*
%TO.C,J2*%
X94562970Y-120700000D03*
D17*
X94562970Y-125700000D03*
%TD*%
D10*
%TO.C,F1*%
X135365370Y-134197600D03*
X138667370Y-134197600D03*
X135365370Y-120735600D03*
X138667370Y-120735600D03*
%TD*%
D18*
%TO.C,J1*%
X136272970Y-143797500D03*
D17*
X141272970Y-143797500D03*
%TD*%
D19*
%TO.C,J4*%
X181200470Y-136464900D03*
D17*
X181200470Y-131464900D03*
%TD*%
D10*
%TO.C,F8*%
X116198070Y-94600000D03*
X116198070Y-91298000D03*
X102736070Y-94600000D03*
X102736070Y-91298000D03*
%TD*%
%TO.C,F5*%
X159738000Y-123129800D03*
X159738000Y-126431800D03*
X173200000Y-123129800D03*
X173200000Y-126431800D03*
%TD*%
%TO.C,F3*%
X116198070Y-134200000D03*
X116198070Y-130898000D03*
X102736070Y-134200000D03*
X102736070Y-130898000D03*
%TD*%
D20*
%TO.C,J8*%
X94200470Y-58000000D03*
D13*
X94200470Y-60000000D03*
X94200470Y-62000000D03*
%TD*%
D19*
%TO.C,J12*%
X181200470Y-111100000D03*
D17*
X181200470Y-106100000D03*
%TD*%
D10*
%TO.C,F4*%
X159738470Y-133764900D03*
X159738470Y-137066900D03*
X173200470Y-133764900D03*
X173200470Y-137066900D03*
%TD*%
D21*
%TO.C,U3*%
X150780470Y-111120000D03*
X150780470Y-64170000D03*
X126270470Y-111120000D03*
X126270470Y-64170000D03*
D22*
X151200470Y-103160000D03*
D23*
X151200470Y-100620000D03*
X151200470Y-98080000D03*
X151200470Y-95540000D03*
X151200470Y-93000000D03*
X151200470Y-90460000D03*
X151200470Y-87920000D03*
X151200470Y-85380000D03*
X151200470Y-82840000D03*
X151200470Y-80300000D03*
X151200470Y-77760000D03*
X151200470Y-75220000D03*
X151200470Y-72680000D03*
X151200470Y-70140000D03*
X151200470Y-67600000D03*
X125800470Y-67600000D03*
X125800470Y-70140000D03*
X125800470Y-72680000D03*
X125800470Y-75220000D03*
X125800470Y-77760000D03*
X125800470Y-80300000D03*
X125800470Y-82840000D03*
X125800470Y-85380000D03*
X125800470Y-87920000D03*
X125800470Y-90460000D03*
X125800470Y-93000000D03*
X125800470Y-95540000D03*
X125800470Y-98080000D03*
X125800470Y-100620000D03*
X125800470Y-103160000D03*
%TD*%
D10*
%TO.C,F2*%
X116198070Y-123600000D03*
X116198070Y-120298000D03*
X102736070Y-123600000D03*
X102736070Y-120298000D03*
%TD*%
%TO.C,F6*%
X116198070Y-108702000D03*
X116198070Y-105400000D03*
X102736070Y-108702000D03*
X102736070Y-105400000D03*
%TD*%
D16*
%TO.C,J13*%
X94562970Y-91998000D03*
D17*
X94562970Y-96998000D03*
%TD*%
D24*
%TO.C,U2*%
X131800000Y-41180000D03*
D25*
X131800000Y-43720000D03*
X131800000Y-46260000D03*
X131800000Y-48800000D03*
X131800000Y-51340000D03*
X131800000Y-53880000D03*
X131800000Y-56420000D03*
X131800000Y-58960000D03*
%TD*%
D11*
%TO.C,H4*%
X182800000Y-145000000D03*
%TD*%
D20*
%TO.C,J6*%
X94200470Y-69400000D03*
D13*
X94200470Y-71400000D03*
X94200470Y-73400000D03*
X94200470Y-75400000D03*
X94200470Y-77400000D03*
%TD*%
D16*
%TO.C,J11*%
X94562970Y-106100000D03*
D17*
X94562970Y-111100000D03*
%TD*%
D10*
%TO.C,F9*%
X159738470Y-94329800D03*
X159738470Y-97631800D03*
X173200470Y-94329800D03*
X173200470Y-97631800D03*
%TD*%
D19*
%TO.C,J5*%
X181200470Y-125764900D03*
D17*
X181200470Y-120764900D03*
%TD*%
D16*
%TO.C,J3*%
X94562970Y-131464900D03*
D17*
X94562970Y-136464900D03*
%TD*%
D12*
%TO.C,J10*%
X181600470Y-50200000D03*
D13*
X181600470Y-48200000D03*
%TD*%
D19*
%TO.C,J14*%
X181237970Y-96998000D03*
D17*
X181237970Y-91998000D03*
%TD*%
D11*
%TO.C,H1*%
X93000000Y-42000000D03*
%TD*%
M02*
