%TF.GenerationSoftware,KiCad,Pcbnew,10.0.0*%
%TF.CreationDate,2026-08-22T17:48:27-05:00*%
%TF.ProjectId,Project_Roll,50726f6a-6563-4745-9f52-6f6c6c2e6b69,rev?*%
%TF.SameCoordinates,Original*%
%TF.FileFunction,Legend,Bot*%
%TF.FilePolarity,Positive*%
%FSLAX46Y46*%
G04 Gerber Fmt 4.6, Leading zero omitted, Abs format (unit mm)*
G04 Created by KiCad (PCBNEW 10.0.0) date 2026-08-22 17:48:27*
%MOMM*%
%LPD*%
G01*
G04 APERTURE LIST*
%ADD10C,0.250000*%
G04 APERTURE END LIST*
D10*
X152037907Y-157702714D02*
X152133146Y-157655095D01*
X152133146Y-157655095D02*
X152323622Y-157655095D01*
X152323622Y-157655095D02*
X152418860Y-157702714D01*
X152418860Y-157702714D02*
X152514098Y-157797952D01*
X152514098Y-157797952D02*
X152561717Y-157893190D01*
X152561717Y-157893190D02*
X152561717Y-158083666D01*
X152561717Y-158083666D02*
X152514098Y-158178904D01*
X152514098Y-158178904D02*
X152418860Y-158274142D01*
X152418860Y-158274142D02*
X152323622Y-158321761D01*
X152323622Y-158321761D02*
X152133146Y-158321761D01*
X152133146Y-158321761D02*
X152037907Y-158274142D01*
X152228384Y-157321761D02*
X152466479Y-157369380D01*
X152466479Y-157369380D02*
X152704574Y-157512238D01*
X152704574Y-157512238D02*
X152847431Y-157750333D01*
X152847431Y-157750333D02*
X152895050Y-157988428D01*
X152895050Y-157988428D02*
X152847431Y-158226523D01*
X152847431Y-158226523D02*
X152704574Y-158464619D01*
X152704574Y-158464619D02*
X152466479Y-158607476D01*
X152466479Y-158607476D02*
X152228384Y-158655095D01*
X152228384Y-158655095D02*
X151990288Y-158607476D01*
X151990288Y-158607476D02*
X151752193Y-158464619D01*
X151752193Y-158464619D02*
X151609336Y-158226523D01*
X151609336Y-158226523D02*
X151561717Y-157988428D01*
X151561717Y-157988428D02*
X151609336Y-157750333D01*
X151609336Y-157750333D02*
X151752193Y-157512238D01*
X151752193Y-157512238D02*
X151990288Y-157369380D01*
X151990288Y-157369380D02*
X152228384Y-157321761D01*
G36*
X151321964Y-158630000D02*
G01*
X151241547Y-158243302D01*
X151224516Y-158192101D01*
X151195629Y-158145910D01*
X151157418Y-158106666D01*
X151112892Y-158076545D01*
X151063570Y-158057169D01*
X151012264Y-158050778D01*
X150420769Y-158050778D01*
X150408068Y-158045771D01*
X150400619Y-158033803D01*
X150356655Y-157822288D01*
X150359098Y-157810321D01*
X150369722Y-157805314D01*
X150954562Y-157805314D01*
X150967323Y-157810321D01*
X150974712Y-157822288D01*
X150988878Y-157890432D01*
X151168213Y-157890432D01*
X151152459Y-157814595D01*
X151135379Y-157763340D01*
X151106481Y-157717142D01*
X151068278Y-157677858D01*
X151023743Y-157647594D01*
X150974356Y-157628029D01*
X150923054Y-157621582D01*
X150324965Y-157621582D01*
X150276144Y-157628314D01*
X150235694Y-157647716D01*
X150203365Y-157678073D01*
X150181350Y-157717325D01*
X150171611Y-157762373D01*
X150175732Y-157814595D01*
X150222871Y-158041496D01*
X150239742Y-158091818D01*
X150268850Y-158138278D01*
X150307263Y-158177914D01*
X150352320Y-158208620D01*
X150402004Y-158228510D01*
X150452459Y-158234998D01*
X151043893Y-158234998D01*
X151056655Y-158240066D01*
X151064043Y-158251973D01*
X151100985Y-158429720D01*
X151098604Y-158441688D01*
X151087918Y-158446695D01*
X150307135Y-158446695D01*
X150345237Y-158630000D01*
X151321964Y-158630000D01*
G37*
G36*
X149812394Y-157628656D02*
G01*
X149862185Y-157648998D01*
X149907122Y-157680274D01*
X149945594Y-157720683D01*
X149974727Y-157767850D01*
X149991695Y-157818869D01*
X150118274Y-158427766D01*
X150122368Y-158478840D01*
X150113023Y-158526013D01*
X150091580Y-158568111D01*
X150060083Y-158601118D01*
X150034228Y-158616978D01*
X150004857Y-158626644D01*
X149971057Y-158630000D01*
X149372967Y-158630000D01*
X149322492Y-158622942D01*
X149272339Y-158601118D01*
X149226918Y-158568017D01*
X149187953Y-158526013D01*
X149158319Y-158477780D01*
X149141547Y-158427766D01*
X149048479Y-157980069D01*
X149227826Y-157980069D01*
X149319295Y-158420073D01*
X149326744Y-158432041D01*
X149339445Y-158437048D01*
X149859255Y-158437048D01*
X149227826Y-157980069D01*
X149048479Y-157980069D01*
X149014968Y-157818869D01*
X149014234Y-157809588D01*
X149274476Y-157809588D01*
X149905478Y-158266566D01*
X149813948Y-157826563D01*
X149806620Y-157814595D01*
X149793859Y-157809588D01*
X149274476Y-157809588D01*
X149014234Y-157809588D01*
X149010849Y-157766790D01*
X149020525Y-157720683D01*
X149042420Y-157680214D01*
X149074380Y-157648998D01*
X149114597Y-157628959D01*
X149163407Y-157622009D01*
X149761496Y-157622009D01*
X149812394Y-157628656D01*
G37*
G36*
X148992864Y-158630000D02*
G01*
X148912447Y-158243302D01*
X148895416Y-158192101D01*
X148866530Y-158145910D01*
X148828318Y-158106666D01*
X148783792Y-158076545D01*
X148734470Y-158057169D01*
X148683164Y-158050778D01*
X148091669Y-158050778D01*
X148078968Y-158045771D01*
X148071519Y-158033803D01*
X148027555Y-157822288D01*
X148029998Y-157810321D01*
X148040622Y-157805314D01*
X148625462Y-157805314D01*
X148638224Y-157810321D01*
X148645612Y-157822288D01*
X148659778Y-157890432D01*
X148839113Y-157890432D01*
X148823360Y-157814595D01*
X148806279Y-157763340D01*
X148777381Y-157717142D01*
X148739178Y-157677858D01*
X148694644Y-157647594D01*
X148645256Y-157628029D01*
X148593954Y-157621582D01*
X147995865Y-157621582D01*
X147947045Y-157628314D01*
X147906594Y-157647716D01*
X147874265Y-157678073D01*
X147852250Y-157717325D01*
X147842511Y-157762373D01*
X147846632Y-157814595D01*
X147893771Y-158041496D01*
X147910642Y-158091818D01*
X147939750Y-158138278D01*
X147978163Y-158177914D01*
X148023220Y-158208620D01*
X148072904Y-158228510D01*
X148123360Y-158234998D01*
X148714794Y-158234998D01*
X148727555Y-158240066D01*
X148734944Y-158251973D01*
X148771885Y-158429720D01*
X148769504Y-158441688D01*
X148758818Y-158446695D01*
X147978035Y-158446695D01*
X148016137Y-158630000D01*
X148992864Y-158630000D01*
G37*
G36*
X147483637Y-157628029D02*
G01*
X147533025Y-157647594D01*
X147577559Y-157677858D01*
X147615762Y-157717142D01*
X147644660Y-157763340D01*
X147661741Y-157814595D01*
X147791189Y-158437414D01*
X147795184Y-158488439D01*
X147785511Y-158533463D01*
X147763662Y-158572891D01*
X147731777Y-158603560D01*
X147691581Y-158623145D01*
X147641957Y-158630000D01*
X147043867Y-158630000D01*
X146993477Y-158623498D01*
X146943850Y-158603560D01*
X146898800Y-158572835D01*
X146860380Y-158533463D01*
X146831282Y-158487360D01*
X146814462Y-158437414D01*
X146770162Y-158224190D01*
X146949467Y-158224190D01*
X146992210Y-158429720D01*
X146999659Y-158441688D01*
X147012360Y-158446695D01*
X147597199Y-158446695D01*
X147607885Y-158441688D01*
X147610266Y-158429720D01*
X147563982Y-158207215D01*
X146962534Y-158207215D01*
X146951910Y-158212222D01*
X146949467Y-158224190D01*
X146770162Y-158224190D01*
X146768361Y-158215519D01*
X146764248Y-158163548D01*
X146773918Y-158118128D01*
X146795959Y-158078625D01*
X146828323Y-158048579D01*
X146868791Y-158029549D01*
X146917655Y-158022934D01*
X147509089Y-158022934D01*
X147519713Y-158017744D01*
X147522095Y-158005532D01*
X147483993Y-157822288D01*
X147476605Y-157810321D01*
X147463843Y-157805314D01*
X146839619Y-157805314D01*
X146801456Y-157621582D01*
X147432336Y-157621582D01*
X147483637Y-157628029D01*
G37*
G36*
X146255390Y-158630000D02*
G01*
X146045830Y-157622009D01*
X145863686Y-157622009D01*
X145949110Y-158032887D01*
X145717262Y-158032887D01*
X145295027Y-157622009D01*
X145097923Y-157622009D01*
X145108853Y-157674521D01*
X145573342Y-158126004D01*
X145296127Y-158577426D01*
X145307056Y-158630000D01*
X145504588Y-158630000D01*
X145755975Y-158219122D01*
X145987822Y-158219122D01*
X146073246Y-158630000D01*
X146255390Y-158630000D01*
G37*
G36*
X144840760Y-157824524D02*
G01*
X144890134Y-157844515D01*
X144934923Y-157875183D01*
X144973299Y-157914612D01*
X145002382Y-157960656D01*
X145019155Y-158010539D01*
X145107876Y-158437414D01*
X145111809Y-158488428D01*
X145101953Y-158533463D01*
X145079951Y-158572892D01*
X145047976Y-158603560D01*
X145007922Y-158623196D01*
X144959560Y-158630000D01*
X144341442Y-158630000D01*
X144303340Y-158446695D01*
X144913886Y-158446695D01*
X144924572Y-158441688D01*
X144926953Y-158429720D01*
X144903323Y-158316147D01*
X144276168Y-158316147D01*
X144214276Y-158018293D01*
X144393954Y-158018293D01*
X144421615Y-158151161D01*
X144869068Y-158151161D01*
X144841407Y-158018293D01*
X144834080Y-158006325D01*
X144821257Y-158001318D01*
X144407021Y-158001318D01*
X144396397Y-158006325D01*
X144393954Y-158018293D01*
X144214276Y-158018293D01*
X144212665Y-158010539D01*
X144208711Y-157959847D01*
X144218283Y-157914673D01*
X144239927Y-157874983D01*
X144271711Y-157844392D01*
X144311792Y-157824856D01*
X144361348Y-157818014D01*
X144790727Y-157818014D01*
X144840760Y-157824524D01*
G37*
G36*
X143847034Y-158630000D02*
G01*
X144115518Y-157818014D01*
X143908461Y-157818014D01*
X143717951Y-158407006D01*
X143282466Y-157818014D01*
X143075471Y-157818014D01*
X143682964Y-158630000D01*
X143847034Y-158630000D01*
G37*
G36*
X143127128Y-158630000D02*
G01*
X142958295Y-157818014D01*
X142779021Y-157818014D01*
X142947854Y-158630000D01*
X143127128Y-158630000D01*
G37*
G36*
X142941320Y-157736254D02*
G01*
X142903035Y-157551973D01*
X142723761Y-157551973D01*
X142762046Y-157736254D01*
X142941320Y-157736254D01*
G37*
G36*
X142782440Y-158630000D02*
G01*
X142613607Y-157818014D01*
X141995429Y-157818014D01*
X141946768Y-157824835D01*
X141906463Y-157844515D01*
X141874357Y-157875183D01*
X141852669Y-157914612D01*
X141843162Y-157959566D01*
X141847173Y-158010539D01*
X141975950Y-158630000D01*
X142155286Y-158630000D01*
X142028096Y-158018293D01*
X142030539Y-158006325D01*
X142041163Y-158001318D01*
X142455399Y-158001318D01*
X142468405Y-158006325D01*
X142475976Y-158018293D01*
X142603166Y-158630000D01*
X142782440Y-158630000D01*
G37*
G36*
X141377739Y-158630000D02*
G01*
X141196999Y-158630000D01*
X141125436Y-158285678D01*
X140511653Y-158284701D01*
X140460591Y-158278195D01*
X140410354Y-158258262D01*
X140364830Y-158227346D01*
X140325907Y-158187248D01*
X140296440Y-158140267D01*
X140279439Y-158089673D01*
X140224476Y-157825158D01*
X140407117Y-157825158D01*
X140460484Y-158081980D01*
X140467873Y-158093764D01*
X140480512Y-158098527D01*
X141069870Y-158098527D01*
X141080617Y-158093764D01*
X141083060Y-158081980D01*
X141029692Y-157825158D01*
X141022304Y-157813190D01*
X141009542Y-157808183D01*
X140420184Y-157808183D01*
X140409560Y-157813190D01*
X140407117Y-157825158D01*
X140224476Y-157825158D01*
X140223080Y-157818442D01*
X140219069Y-157766780D01*
X140228942Y-157720928D01*
X140251236Y-157680760D01*
X140283897Y-157649914D01*
X140324815Y-157630240D01*
X140374206Y-157623414D01*
X141168483Y-157623414D01*
X141377739Y-158630000D01*
G37*
G36*
X140274982Y-158630000D02*
G01*
X140090884Y-157744558D01*
X140074152Y-157694529D01*
X140045211Y-157648326D01*
X140006987Y-157608837D01*
X139962351Y-157578290D01*
X139912887Y-157558491D01*
X139861540Y-157551973D01*
X139561854Y-157551973D01*
X139600139Y-157736254D01*
X139893230Y-157736254D01*
X139905992Y-157741261D01*
X139913381Y-157753229D01*
X139926814Y-157818014D01*
X139617114Y-157818014D01*
X139655216Y-158001318D01*
X139964916Y-158001318D01*
X140095647Y-158630000D01*
X140274982Y-158630000D01*
G37*
G36*
X139368744Y-157824524D02*
G01*
X139418117Y-157844515D01*
X139462906Y-157875183D01*
X139501282Y-157914612D01*
X139530366Y-157960656D01*
X139547138Y-158010539D01*
X139635860Y-158437414D01*
X139639792Y-158488428D01*
X139629937Y-158533463D01*
X139607934Y-158572892D01*
X139575959Y-158603560D01*
X139535905Y-158623196D01*
X139487543Y-158630000D01*
X138869426Y-158630000D01*
X138831324Y-158446695D01*
X139441870Y-158446695D01*
X139452555Y-158441688D01*
X139454937Y-158429720D01*
X139431306Y-158316147D01*
X138804152Y-158316147D01*
X138742259Y-158018293D01*
X138921938Y-158018293D01*
X138949598Y-158151161D01*
X139397051Y-158151161D01*
X139369391Y-158018293D01*
X139362063Y-158006325D01*
X139349241Y-158001318D01*
X138935005Y-158001318D01*
X138924380Y-158006325D01*
X138921938Y-158018293D01*
X138742259Y-158018293D01*
X138740648Y-158010539D01*
X138736694Y-157959847D01*
X138746266Y-157914673D01*
X138767910Y-157874983D01*
X138799694Y-157844392D01*
X138839775Y-157824856D01*
X138889331Y-157818014D01*
X139318710Y-157818014D01*
X139368744Y-157824524D01*
G37*
G36*
X138704989Y-158630000D02*
G01*
X138520891Y-157744558D01*
X138504159Y-157694529D01*
X138475218Y-157648326D01*
X138436994Y-157608837D01*
X138392358Y-157578290D01*
X138342894Y-157558491D01*
X138291547Y-157551973D01*
X137991861Y-157551973D01*
X138030146Y-157736254D01*
X138323237Y-157736254D01*
X138335999Y-157741261D01*
X138343387Y-157753229D01*
X138356821Y-157818014D01*
X138047121Y-157818014D01*
X138085223Y-158001318D01*
X138394923Y-158001318D01*
X138525654Y-158630000D01*
X138704989Y-158630000D01*
G37*
G36*
X138103175Y-158630000D02*
G01*
X137919077Y-157744558D01*
X137902344Y-157694529D01*
X137873403Y-157648326D01*
X137835180Y-157608837D01*
X137790544Y-157578290D01*
X137741079Y-157558491D01*
X137689733Y-157551973D01*
X137390047Y-157551973D01*
X137428332Y-157736254D01*
X137721423Y-157736254D01*
X137734185Y-157741261D01*
X137741573Y-157753229D01*
X137755006Y-157818014D01*
X137445307Y-157818014D01*
X137483408Y-158001318D01*
X137793108Y-158001318D01*
X137923839Y-158630000D01*
X138103175Y-158630000D01*
G37*
G36*
X137196936Y-157824524D02*
G01*
X137246310Y-157844515D01*
X137291099Y-157875183D01*
X137329474Y-157914612D01*
X137358558Y-157960656D01*
X137375331Y-158010539D01*
X137464052Y-158437414D01*
X137467985Y-158488428D01*
X137458129Y-158533463D01*
X137436127Y-158572892D01*
X137404152Y-158603560D01*
X137364098Y-158623196D01*
X137315736Y-158630000D01*
X136697618Y-158630000D01*
X136659516Y-158446695D01*
X137270062Y-158446695D01*
X137280748Y-158441688D01*
X137283129Y-158429720D01*
X137259499Y-158316147D01*
X136632344Y-158316147D01*
X136570452Y-158018293D01*
X136750130Y-158018293D01*
X136777791Y-158151161D01*
X137225244Y-158151161D01*
X137197583Y-158018293D01*
X137190256Y-158006325D01*
X137177433Y-158001318D01*
X136763197Y-158001318D01*
X136752573Y-158006325D01*
X136750130Y-158018293D01*
X136570452Y-158018293D01*
X136568841Y-158010539D01*
X136564887Y-157959847D01*
X136574459Y-157914673D01*
X136596103Y-157874983D01*
X136627887Y-157844392D01*
X136667967Y-157824856D01*
X136717524Y-157818014D01*
X137146903Y-157818014D01*
X137196936Y-157824524D01*
G37*
G36*
X136543318Y-158630000D02*
G01*
X136414541Y-158010539D01*
X136397768Y-157960656D01*
X136368684Y-157914612D01*
X136330257Y-157875203D01*
X136285214Y-157844515D01*
X136235531Y-157824528D01*
X136185136Y-157818014D01*
X135744460Y-157818014D01*
X135782562Y-158001318D01*
X136216704Y-158001318D01*
X136229466Y-158006325D01*
X136236854Y-158018293D01*
X136364043Y-158630000D01*
X136543318Y-158630000D01*
G37*
G36*
X135818588Y-158630000D02*
G01*
X135780486Y-158446695D01*
X135601212Y-158446695D01*
X135639314Y-158630000D01*
X135818588Y-158630000D01*
G37*
G36*
X134718474Y-157628475D02*
G01*
X134768710Y-157648265D01*
X134814078Y-157679008D01*
X134852608Y-157719035D01*
X134881679Y-157766002D01*
X134898647Y-157817037D01*
X135067663Y-158630000D01*
X134886924Y-158630000D01*
X134816582Y-158291723D01*
X134194007Y-158291723D01*
X134264349Y-158630000D01*
X134081716Y-158630000D01*
X133914300Y-157824731D01*
X134096920Y-157824731D01*
X134155416Y-158105915D01*
X134777991Y-158105915D01*
X134719495Y-157824731D01*
X134712168Y-157812763D01*
X134699345Y-157807756D01*
X134109987Y-157807756D01*
X134099363Y-157812763D01*
X134096920Y-157824731D01*
X133914300Y-157824731D01*
X133912700Y-157817037D01*
X133908646Y-157764949D01*
X133918501Y-157719035D01*
X133940810Y-157678959D01*
X133973517Y-157648265D01*
X134014426Y-157628780D01*
X134063886Y-157622009D01*
X134667349Y-157622009D01*
X134718474Y-157628475D01*
G37*
G36*
X133717123Y-158630000D02*
G01*
X133765485Y-158623196D01*
X133805539Y-158603560D01*
X133837513Y-158572892D01*
X133859516Y-158533463D01*
X133869372Y-158488428D01*
X133865439Y-158437414D01*
X133681158Y-157551057D01*
X133500907Y-157551057D01*
X133683600Y-158429720D01*
X133681219Y-158441688D01*
X133670533Y-158446695D01*
X133518431Y-158446695D01*
X133556533Y-158630000D01*
X133717123Y-158630000D01*
G37*
G36*
X133251107Y-158630000D02*
G01*
X133299469Y-158623196D01*
X133339523Y-158603560D01*
X133371498Y-158572892D01*
X133393501Y-158533463D01*
X133403356Y-158488428D01*
X133399424Y-158437414D01*
X133215143Y-157551057D01*
X133034891Y-157551057D01*
X133217585Y-158429720D01*
X133215204Y-158441688D01*
X133204518Y-158446695D01*
X133052416Y-158446695D01*
X133090518Y-158630000D01*
X133251107Y-158630000D01*
G37*
G36*
X132555321Y-158630000D02*
G01*
X132426543Y-158010539D01*
X132409771Y-157960656D01*
X132380687Y-157914612D01*
X132342259Y-157875203D01*
X132297217Y-157844515D01*
X132247534Y-157824528D01*
X132197138Y-157818014D01*
X131756463Y-157818014D01*
X131794565Y-158001318D01*
X132228707Y-158001318D01*
X132241468Y-158006325D01*
X132248857Y-158018293D01*
X132376046Y-158630000D01*
X132555321Y-158630000D01*
G37*
G36*
X131805983Y-158630000D02*
G01*
X131637151Y-157818014D01*
X131457876Y-157818014D01*
X131626709Y-158630000D01*
X131805983Y-158630000D01*
G37*
G36*
X131620176Y-157736254D02*
G01*
X131581891Y-157551973D01*
X131402616Y-157551973D01*
X131440901Y-157736254D01*
X131620176Y-157736254D01*
G37*
G36*
X131202619Y-157824524D02*
G01*
X131252346Y-157844515D01*
X131297389Y-157875203D01*
X131335816Y-157914612D01*
X131364852Y-157960652D01*
X131381612Y-158010539D01*
X131470333Y-158437414D01*
X131474225Y-158488156D01*
X131464471Y-158533401D01*
X131442467Y-158573031D01*
X131410249Y-158603682D01*
X131369846Y-158623224D01*
X131321100Y-158630000D01*
X130882623Y-158630000D01*
X130907353Y-158748885D01*
X130914802Y-158760853D01*
X130927503Y-158765860D01*
X131406280Y-158765860D01*
X131444687Y-158950629D01*
X130958400Y-158950629D01*
X130907411Y-158944178D01*
X130857711Y-158924495D01*
X130812852Y-158894075D01*
X130775157Y-158854886D01*
X130746794Y-158808799D01*
X130729911Y-158757616D01*
X130576184Y-158018293D01*
X130755434Y-158018293D01*
X130840980Y-158429720D01*
X130848429Y-158441688D01*
X130861130Y-158446695D01*
X131276343Y-158446695D01*
X131287028Y-158441688D01*
X131289410Y-158429720D01*
X131203864Y-158018293D01*
X131196536Y-158006325D01*
X131183714Y-158001318D01*
X130768501Y-158001318D01*
X130757876Y-158006325D01*
X130755434Y-158018293D01*
X130576184Y-158018293D01*
X130574572Y-158010539D01*
X130570514Y-157959557D01*
X130579884Y-157914612D01*
X130601361Y-157875161D01*
X130633129Y-157844515D01*
X130673235Y-157824889D01*
X130722889Y-157818014D01*
X131152267Y-157818014D01*
X131202619Y-157824524D01*
G37*
G36*
X130537081Y-158630000D02*
G01*
X130312988Y-157551973D01*
X130133714Y-157551973D01*
X130188974Y-157818014D01*
X129750069Y-157818014D01*
X129701774Y-157824832D01*
X129661775Y-157844515D01*
X129629772Y-157875150D01*
X129607798Y-157914612D01*
X129597928Y-157959587D01*
X129601814Y-158010539D01*
X129730591Y-158630000D01*
X129909926Y-158630000D01*
X129782737Y-158018293D01*
X129785179Y-158006325D01*
X129795804Y-158001318D01*
X130210040Y-158001318D01*
X130223046Y-158006325D01*
X130230617Y-158018293D01*
X130357807Y-158630000D01*
X130537081Y-158630000D01*
G37*
G36*
X129414174Y-158630000D02*
G01*
X129463851Y-158623143D01*
X129504056Y-158603560D01*
X129535940Y-158572891D01*
X129557789Y-158533463D01*
X129567463Y-158488439D01*
X129563468Y-158437414D01*
X129383033Y-157569375D01*
X129203698Y-157569375D01*
X129255355Y-157818014D01*
X128945655Y-157818014D01*
X128983757Y-158001318D01*
X129293457Y-158001318D01*
X129382545Y-158429720D01*
X129380163Y-158441688D01*
X129369478Y-158446695D01*
X129076386Y-158446695D01*
X129114488Y-158630000D01*
X129414174Y-158630000D01*
G37*
G36*
X128799659Y-158630000D02*
G01*
X128847968Y-158623198D01*
X128888014Y-158603560D01*
X128920038Y-158572887D01*
X128942053Y-158533463D01*
X128951863Y-158488431D01*
X128947915Y-158437414D01*
X128941381Y-158405968D01*
X128762107Y-158405968D01*
X128767053Y-158429720D01*
X128764672Y-158441688D01*
X128753986Y-158446695D01*
X128339750Y-158446695D01*
X128327049Y-158441688D01*
X128319661Y-158429720D01*
X128299572Y-158333122D01*
X128301953Y-158321154D01*
X128312578Y-158316147D01*
X128734385Y-158316147D01*
X128782690Y-158309331D01*
X128822740Y-158289647D01*
X128854764Y-158258974D01*
X128876779Y-158219549D01*
X128886603Y-158174569D01*
X128882702Y-158123562D01*
X128859193Y-158010539D01*
X128842434Y-157960652D01*
X128813398Y-157914612D01*
X128775023Y-157875183D01*
X128730233Y-157844515D01*
X128680816Y-157824521D01*
X128630826Y-157818014D01*
X128201448Y-157818014D01*
X128151837Y-157824885D01*
X128111688Y-157844515D01*
X128079783Y-157875141D01*
X128057833Y-157914612D01*
X128047963Y-157959587D01*
X128051849Y-158010539D01*
X128058382Y-158042046D01*
X128239061Y-158042046D01*
X128234115Y-158018293D01*
X128236557Y-158006325D01*
X128247121Y-158001318D01*
X128661357Y-158001318D01*
X128674180Y-158006325D01*
X128681507Y-158018293D01*
X128701596Y-158114891D01*
X128699214Y-158126859D01*
X128688529Y-158131866D01*
X128266721Y-158131866D01*
X128217111Y-158138737D01*
X128176962Y-158158367D01*
X128145008Y-158188998D01*
X128123046Y-158228464D01*
X128113191Y-158273446D01*
X128117123Y-158324452D01*
X128140570Y-158437414D01*
X128157390Y-158487360D01*
X128186488Y-158533463D01*
X128224796Y-158572857D01*
X128269530Y-158603560D01*
X128318993Y-158623455D01*
X128370280Y-158630000D01*
X128799659Y-158630000D01*
G37*
G36*
X127594260Y-158630000D02*
G01*
X127465483Y-158010539D01*
X127448710Y-157960656D01*
X127419626Y-157914612D01*
X127381199Y-157875203D01*
X127336156Y-157844515D01*
X127286473Y-157824528D01*
X127236078Y-157818014D01*
X126795403Y-157818014D01*
X126833504Y-158001318D01*
X127267646Y-158001318D01*
X127280408Y-158006325D01*
X127287796Y-158018293D01*
X127414986Y-158630000D01*
X127594260Y-158630000D01*
G37*
G36*
X126548925Y-157824524D02*
G01*
X126598299Y-157844515D01*
X126643088Y-157875183D01*
X126681463Y-157914612D01*
X126710547Y-157960656D01*
X126727320Y-158010539D01*
X126816041Y-158437414D01*
X126819973Y-158488428D01*
X126810118Y-158533463D01*
X126788115Y-158572892D01*
X126756140Y-158603560D01*
X126716087Y-158623196D01*
X126667725Y-158630000D01*
X126049607Y-158630000D01*
X126011505Y-158446695D01*
X126622051Y-158446695D01*
X126632737Y-158441688D01*
X126635118Y-158429720D01*
X126611488Y-158316147D01*
X125984333Y-158316147D01*
X125922441Y-158018293D01*
X126102119Y-158018293D01*
X126129780Y-158151161D01*
X126577233Y-158151161D01*
X126549572Y-158018293D01*
X126542245Y-158006325D01*
X126529422Y-158001318D01*
X126115186Y-158001318D01*
X126104562Y-158006325D01*
X126102119Y-158018293D01*
X125922441Y-158018293D01*
X125920830Y-158010539D01*
X125916876Y-157959847D01*
X125926448Y-157914673D01*
X125948092Y-157874983D01*
X125979876Y-157844392D01*
X126019956Y-157824856D01*
X126069513Y-157818014D01*
X126498892Y-157818014D01*
X126548925Y-157824524D01*
G37*
G36*
X125713407Y-158630000D02*
G01*
X125761716Y-158623198D01*
X125801762Y-158603560D01*
X125833786Y-158572887D01*
X125855800Y-158533463D01*
X125865610Y-158488431D01*
X125861662Y-158437414D01*
X125855129Y-158405968D01*
X125675854Y-158405968D01*
X125680800Y-158429720D01*
X125678419Y-158441688D01*
X125667733Y-158446695D01*
X125253497Y-158446695D01*
X125240797Y-158441688D01*
X125233408Y-158429720D01*
X125213319Y-158333122D01*
X125215701Y-158321154D01*
X125226325Y-158316147D01*
X125648133Y-158316147D01*
X125696438Y-158309331D01*
X125736488Y-158289647D01*
X125768512Y-158258974D01*
X125790526Y-158219549D01*
X125800351Y-158174569D01*
X125796449Y-158123562D01*
X125772941Y-158010539D01*
X125756181Y-157960652D01*
X125727145Y-157914612D01*
X125688770Y-157875183D01*
X125643981Y-157844515D01*
X125594563Y-157824521D01*
X125544574Y-157818014D01*
X125115195Y-157818014D01*
X125065585Y-157824885D01*
X125025436Y-157844515D01*
X124993530Y-157875141D01*
X124971580Y-157914612D01*
X124961710Y-157959587D01*
X124965596Y-158010539D01*
X124972130Y-158042046D01*
X125152808Y-158042046D01*
X125147862Y-158018293D01*
X125150305Y-158006325D01*
X125160868Y-158001318D01*
X125575104Y-158001318D01*
X125587927Y-158006325D01*
X125595254Y-158018293D01*
X125615343Y-158114891D01*
X125612962Y-158126859D01*
X125602276Y-158131866D01*
X125180469Y-158131866D01*
X125130859Y-158138737D01*
X125090710Y-158158367D01*
X125058755Y-158188998D01*
X125036793Y-158228464D01*
X125026938Y-158273446D01*
X125030870Y-158324452D01*
X125054317Y-158437414D01*
X125071137Y-158487360D01*
X125100235Y-158533463D01*
X125138544Y-158572857D01*
X125183278Y-158603560D01*
X125232740Y-158623455D01*
X125284028Y-158630000D01*
X125713407Y-158630000D01*
G37*
G36*
X124657508Y-157824524D02*
G01*
X124706882Y-157844515D01*
X124751671Y-157875183D01*
X124790047Y-157914612D01*
X124819131Y-157960656D01*
X124835903Y-158010539D01*
X124924624Y-158437414D01*
X124928557Y-158488428D01*
X124918702Y-158533463D01*
X124896699Y-158572892D01*
X124864724Y-158603560D01*
X124824670Y-158623196D01*
X124776308Y-158630000D01*
X124158190Y-158630000D01*
X124120088Y-158446695D01*
X124730635Y-158446695D01*
X124741320Y-158441688D01*
X124743702Y-158429720D01*
X124720071Y-158316147D01*
X124092916Y-158316147D01*
X124031024Y-158018293D01*
X124210703Y-158018293D01*
X124238363Y-158151161D01*
X124685816Y-158151161D01*
X124658155Y-158018293D01*
X124650828Y-158006325D01*
X124638005Y-158001318D01*
X124223770Y-158001318D01*
X124213145Y-158006325D01*
X124210703Y-158018293D01*
X124031024Y-158018293D01*
X124029413Y-158010539D01*
X124025459Y-157959847D01*
X124035031Y-157914673D01*
X124056675Y-157874983D01*
X124088459Y-157844392D01*
X124128540Y-157824856D01*
X124178096Y-157818014D01*
X124607475Y-157818014D01*
X124657508Y-157824524D01*
G37*
G36*
X124003890Y-158630000D02*
G01*
X123875113Y-158010539D01*
X123858340Y-157960656D01*
X123829256Y-157914612D01*
X123790829Y-157875203D01*
X123745786Y-157844515D01*
X123696104Y-157824528D01*
X123645708Y-157818014D01*
X123205033Y-157818014D01*
X123243135Y-158001318D01*
X123677276Y-158001318D01*
X123690038Y-158006325D01*
X123697426Y-158018293D01*
X123824616Y-158630000D01*
X124003890Y-158630000D01*
G37*
G36*
X122869504Y-158630000D02*
G01*
X123137988Y-157818014D01*
X122930931Y-157818014D01*
X122740422Y-158407006D01*
X122304937Y-157818014D01*
X122097941Y-157818014D01*
X122705434Y-158630000D01*
X122869504Y-158630000D01*
G37*
G36*
X121894633Y-157824524D02*
G01*
X121944007Y-157844515D01*
X121988796Y-157875183D01*
X122027172Y-157914612D01*
X122056255Y-157960656D01*
X122073028Y-158010539D01*
X122161749Y-158437414D01*
X122165682Y-158488428D01*
X122155826Y-158533463D01*
X122133824Y-158572892D01*
X122101849Y-158603560D01*
X122061795Y-158623196D01*
X122013433Y-158630000D01*
X121395315Y-158630000D01*
X121357213Y-158446695D01*
X121967759Y-158446695D01*
X121978445Y-158441688D01*
X121980826Y-158429720D01*
X121957196Y-158316147D01*
X121330041Y-158316147D01*
X121268149Y-158018293D01*
X121447827Y-158018293D01*
X121475488Y-158151161D01*
X121922941Y-158151161D01*
X121895280Y-158018293D01*
X121887953Y-158006325D01*
X121875130Y-158001318D01*
X121460894Y-158001318D01*
X121450270Y-158006325D01*
X121447827Y-158018293D01*
X121268149Y-158018293D01*
X121266538Y-158010539D01*
X121262584Y-157959847D01*
X121272156Y-157914673D01*
X121293800Y-157874983D01*
X121325584Y-157844392D01*
X121365665Y-157824856D01*
X121415221Y-157818014D01*
X121844600Y-157818014D01*
X121894633Y-157824524D01*
G37*
G36*
X120474947Y-157818014D02*
G01*
X120914340Y-157818014D01*
X120965589Y-157824568D01*
X121015151Y-157844515D01*
X121059808Y-157875199D01*
X121097827Y-157914612D01*
X121126528Y-157960624D01*
X121143196Y-158010539D01*
X121231917Y-158437414D01*
X121235887Y-158488169D01*
X121226360Y-158533401D01*
X121204676Y-158573054D01*
X121172871Y-158603682D01*
X121132700Y-158623178D01*
X121083173Y-158630000D01*
X120464506Y-158630000D01*
X120337348Y-158018293D01*
X120516591Y-158018293D01*
X120602137Y-158429720D01*
X120609586Y-158441688D01*
X120622287Y-158446695D01*
X121036584Y-158446695D01*
X121047269Y-158441688D01*
X121049651Y-158429720D01*
X120964105Y-158018293D01*
X120956716Y-158006325D01*
X120943954Y-158001318D01*
X120529658Y-158001318D01*
X120519033Y-158006325D01*
X120516591Y-158018293D01*
X120337348Y-158018293D01*
X120240413Y-157551973D01*
X120419687Y-157551973D01*
X120474947Y-157818014D01*
G37*
M02*
